<svg width="90" height="29" viewBox="0 0 90 29" fill="none" xmlns="http://www.w3.org/2000/svg">
<path d="M13228 16516 c-10 -14 -35 -30 -55 -36 -76 -23 -91 -32 -97 -56 -4
-13 -26 -48 -51 -78 -24 -30 -51 -70 -58 -89 -19 -45 -49 -55 -195 -66 -120
-9 -125 -10 -156 -40 -23 -23 -47 -34 -91 -42 -71 -13 -90 -32 -98 -98 -3 -28
-13 -64 -22 -81 -13 -25 -14 -40 -5 -83 6 -29 15 -81 21 -117 6 -36 13 -75 15
-87 2 -13 18 -30 35 -38 17 -9 35 -29 40 -45 6 -16 22 -33 40 -40 16 -7 39
-30 50 -51 13 -21 32 -40 45 -43 13 -4 34 -22 47 -41 21 -34 64 -55 111 -55
10 0 35 -17 55 -39 20 -21 52 -44 72 -50 20 -7 45 -21 55 -32 21 -23 65 -45
112 -54 18 -4 45 -17 60 -29 47 -38 97 -56 160 -56 56 0 61 2 86 35 22 28 36
36 87 46 48 9 65 18 82 41 12 17 39 39 59 49 21 11 43 29 49 42 7 12 17 25 23
29 8 5 11 111 11 346 l0 339 -27 35 c-21 28 -28 50 -33 109 -8 98 -22 143 -48
155 -12 5 -30 26 -39 46 -10 21 -32 45 -48 53 -17 9 -35 27 -40 40 -5 13 -27
33 -49 45 -22 11 -45 29 -51 40 -9 17 -21 20 -73 20 -54 -1 -64 -4 -79 -24z"/>
<path d="M14245 16510 c-16 -16 -44 -33 -63 -36 -47 -9 -99 -58 -112 -104 -7
-26 -24 -49 -50 -70 -35 -28 -40 -37 -40 -73 0 -57 -16 -110 -39 -131 -11 -10
-22 -38 -26 -67 -4 -27 -11 -49 -16 -49 -13 0 -11 -431 2 -548 6 -53 18 -112
27 -130 22 -44 120 -129 168 -146 26 -8 43 -23 54 -44 20 -41 27 -43 134 -43
l90 0 31 36 c25 30 41 38 90 48 49 10 62 17 72 38 20 41 39 52 106 58 55 5 63
9 75 34 17 35 46 53 98 62 29 4 54 18 82 46 23 21 48 39 57 39 9 0 25 16 37
35 11 20 33 42 49 51 16 8 36 29 45 47 9 17 31 46 49 64 26 25 33 41 38 85 3
30 13 85 22 121 16 65 16 68 -4 110 -12 24 -21 49 -21 55 0 6 -14 19 -31 27
-17 9 -39 31 -50 50 -19 31 -23 33 -89 37 -58 3 -74 8 -97 30 -36 33 -48 37
-168 53 -63 8 -91 26 -109 69 -8 19 -24 37 -35 41 -13 4 -33 30 -50 63 -34 67
-52 85 -106 103 -22 7 -53 25 -68 41 -23 23 -37 28 -76 28 -39 0 -52 -5 -76
-30z"/>
<path d="M4494 16240 c-6 -6 -53 -15 -105 -20 -119 -13 -165 -27 -207 -62 -18
-16 -45 -28 -60 -28 -44 0 -94 -18 -152 -53 -30 -18 -66 -40 -79 -48 -55 -32
-316 -292 -334 -331 -6 -16 -15 -28 -19 -28 -5 0 -8 -7 -8 -15 0 -8 -3 -15 -8
-15 -4 0 -13 -15 -21 -32 -33 -81 -52 -124 -61 -138 -38 -60 -55 -143 -66
-335 -8 -146 -8 -129 5 -300 13 -168 21 -205 55 -250 15 -19 29 -49 33 -67 8
-45 25 -77 62 -115 17 -18 33 -45 37 -60 11 -43 69 -120 143 -187 18 -17 50
-46 70 -64 20 -19 50 -41 66 -49 17 -9 44 -28 62 -44 18 -15 49 -36 70 -45 21
-10 50 -26 65 -36 36 -25 135 -57 174 -58 30 0 61 -9 178 -49 50 -18 83 -21
215 -21 134 0 164 3 211 21 93 35 142 49 175 49 39 0 136 32 173 58 15 10 57
33 93 50 75 36 119 77 148 135 26 51 18 82 -30 130 -37 35 -45 38 -76 32 -34
-6 -88 -38 -178 -104 -41 -30 -62 -40 -130 -61 -22 -6 -65 -24 -95 -38 -55
-27 -56 -27 -290 -27 -208 0 -240 2 -275 19 -22 10 -49 22 -60 26 -11 4 -33
13 -48 19 -15 6 -36 11 -46 11 -9 0 -64 30 -122 66 -126 81 -284 236 -328 323
-16 31 -38 65 -49 77 -29 30 -42 59 -42 93 0 16 -4 40 -9 53 -5 13 -15 43 -22
68 -7 25 -21 54 -31 66 -27 30 -31 73 -20 206 8 99 13 121 34 150 14 18 31 60
38 93 7 33 27 85 45 115 17 30 40 75 49 100 19 47 51 85 175 204 138 133 153
146 173 146 23 0 72 24 118 59 25 18 59 30 115 39 285 47 331 47 608 -1 44 -8
89 -22 105 -34 32 -24 111 -63 126 -63 6 0 33 -20 59 -45 44 -41 53 -45 98
-45 81 0 116 26 125 93 6 39 3 48 -27 83 -39 45 -54 58 -89 76 -14 7 -27 15
-30 18 -25 25 -116 67 -174 80 -26 6 -62 21 -80 33 -43 31 -88 45 -176 52 -41
4 -98 13 -127 21 -59 16 -214 19 -229 4z"/>
<path d="M17021 16192 c-29 -14 -38 -26 -52 -75 -10 -32 -24 -66 -32 -75 -19
-23 -43 -80 -52 -122 -4 -19 -22 -67 -41 -106 -19 -39 -42 -102 -51 -140 -9
-38 -26 -85 -38 -104 -12 -19 -28 -53 -35 -75 -7 -22 -16 -48 -21 -57 -5 -10
-9 -32 -9 -50 0 -20 -12 -50 -29 -75 -16 -24 -39 -80 -51 -125 -12 -45 -37
-112 -55 -148 -18 -36 -37 -87 -40 -115 -6 -41 -46 -136 -65 -155 -12 -12 -30
-79 -30 -111 0 -23 -10 -49 -30 -75 -30 -42 -60 -135 -60 -189 0 -20 -13 -48
-39 -82 -26 -35 -41 -67 -46 -100 -4 -26 -21 -74 -39 -108 -45 -85 -56 -123
-56 -189 0 -93 26 -126 99 -126 45 0 52 3 65 28 9 15 29 40 46 56 16 16 30 40
30 52 0 13 5 36 11 51 18 45 34 78 39 83 10 10 49 136 59 194 6 33 19 69 30
80 10 12 21 29 24 38 12 34 73 38 552 36 l468 -3 19 -26 c11 -14 22 -44 25
-67 4 -28 17 -55 41 -83 28 -33 37 -54 43 -98 10 -83 25 -132 58 -182 16 -24
35 -62 41 -85 14 -48 51 -74 104 -74 33 0 38 4 57 45 12 25 25 48 30 51 18 11
0 117 -24 140 -4 4 -7 16 -7 26 0 10 -4 26 -9 36 -5 9 -14 35 -21 57 -7 22
-23 55 -37 73 -16 21 -26 52 -30 88 -3 30 -10 57 -14 60 -5 3 -9 16 -9 29 0
13 -4 27 -10 30 -5 3 -10 15 -10 26 0 10 -4 19 -9 19 -11 0 -51 102 -51 130 0
10 -16 39 -35 64 -26 35 -37 61 -45 113 -14 89 -28 130 -62 177 -16 23 -28 53
-28 70 0 38 -22 104 -59 176 -16 30 -32 73 -35 95 -9 45 -29 89 -61 126 -15
18 -24 47 -28 87 -4 33 -12 73 -18 88 -30 73 -40 92 -54 104 -8 7 -15 27 -15
44 0 45 -23 102 -53 134 -19 20 -29 44 -37 97 -14 91 -26 121 -69 170 -59 68
-83 76 -140 47z m94 -512 c21 -22 31 -44 36 -83 8 -62 39 -149 62 -175 10 -10
22 -45 28 -78 11 -65 29 -124 41 -138 4 -6 8 -18 8 -28 0 -10 4 -18 8 -18 5 0
19 -33 32 -72 29 -93 40 -117 68 -144 14 -15 22 -36 23 -59 1 -19 2 -38 3 -42
21 -78 31 -110 63 -190 3 -7 -8 -18 -23 -24 -86 -35 -96 -37 -143 -25 -33 8
-94 9 -216 3 -230 -13 -365 -10 -385 7 -8 8 -24 16 -35 18 -22 4 -22 6 -5 93
11 57 17 72 59 141 11 18 22 57 26 88 5 34 17 71 32 93 14 20 38 77 54 127 31
96 46 131 65 156 6 8 20 51 30 94 10 44 29 95 41 113 13 19 23 38 23 44 0 5 4
17 9 27 11 21 27 62 35 85 8 25 28 21 61 -13z"/>
<path d="M22610 16188 c-19 -13 -40 -35 -47 -48 -10 -20 -13 -268 -13 -1138
l0 -1113 46 -49 c51 -55 77 -61 124 -33 15 9 38 33 49 53 21 38 21 39 20 1136
0 850 -3 1107 -13 1133 -25 70 -107 99 -166 59z"/>
<path d="M23680 16199 c-22 -8 -113 -134 -150 -209 -7 -14 -24 -36 -38 -50
-32 -32 -70 -113 -78 -168 -5 -35 -3 -46 12 -57 24 -18 97 -19 126 -2 11 6 74
64 138 127 65 63 130 127 146 141 42 38 71 74 79 98 11 35 -41 107 -86 120
-43 13 -114 13 -149 0z"/>
<path d="M7295 15488 c-16 -6 -36 -17 -43 -25 -18 -17 -31 -75 -32 -130 0 -23
-4 -45 -10 -48 -12 -7 -52 18 -106 66 -23 20 -51 40 -63 44 -11 3 -21 11 -21
16 0 5 -9 9 -20 9 -11 0 -20 5 -20 10 0 6 -9 10 -20 10 -11 0 -20 4 -20 9 0 9
-22 15 -130 32 -83 14 -374 6 -415 -11 -67 -28 -82 -36 -138 -73 -32 -21 -61
-45 -64 -53 -3 -8 -26 -25 -52 -38 -50 -26 -95 -71 -113 -114 -7 -15 -28 -43
-47 -63 -36 -35 -97 -148 -121 -224 -8 -25 -14 -107 -16 -215 -3 -225 10 -320
53 -377 13 -18 31 -55 39 -82 13 -40 73 -129 111 -164 4 -4 22 -20 38 -35 17
-15 37 -38 45 -50 8 -12 22 -24 31 -27 10 -3 32 -19 51 -35 32 -29 74 -47 153
-68 22 -5 67 -22 100 -36 53 -23 74 -26 178 -26 109 0 122 2 180 29 34 16 78
32 97 35 19 4 49 12 65 19 34 12 200 121 210 137 13 21 25 -3 25 -51 0 -59 10
-81 58 -131 50 -52 85 -52 137 2 l40 41 3 776 c3 861 7 810 -63 839 -40 16
-59 17 -100 2z m-560 -228 c126 -22 164 -35 211 -75 93 -79 161 -151 189 -200
16 -27 37 -60 46 -73 29 -38 42 -152 37 -319 -5 -147 -6 -153 -33 -195 -16
-24 -41 -68 -56 -98 -35 -71 -123 -162 -185 -191 -27 -13 -70 -36 -95 -52
l-46 -28 -159 3 -159 3 -80 40 c-58 29 -100 61 -157 117 -43 42 -78 82 -78 88
0 6 -14 23 -30 38 -44 38 -64 143 -64 327 1 188 19 274 71 330 10 11 24 32 32
47 14 27 156 174 183 189 21 12 124 40 178 49 62 10 136 10 195 0z"/>
<path d="M8450 15485 c-97 -12 -123 -22 -163 -59 -17 -16 -39 -26 -58 -26 -24
0 -43 -12 -86 -57 -70 -73 -77 -84 -108 -168 -38 -106 -35 -190 14 -310 25
-62 132 -159 201 -180 14 -4 41 -19 62 -32 60 -40 162 -61 305 -62 87 -1 94
-3 126 -31 31 -27 81 -49 148 -64 14 -3 36 -21 49 -39 12 -18 38 -43 56 -55
37 -24 51 -68 40 -126 -9 -49 -75 -132 -138 -173 -29 -20 -63 -44 -74 -55 -20
-18 -36 -19 -210 -16 -187 3 -189 3 -224 29 -19 15 -57 34 -83 43 -59 20 -107
44 -107 54 0 4 -15 17 -33 30 -26 17 -47 22 -98 22 -83 0 -109 -22 -109 -92 0
-42 4 -48 62 -101 34 -32 67 -57 75 -57 7 0 13 -3 13 -7 0 -5 10 -13 23 -20
112 -58 147 -73 177 -73 20 0 54 -9 75 -21 81 -41 117 -49 243 -49 127 0 130
1 227 54 17 9 43 16 59 16 29 0 106 37 106 52 0 4 19 20 42 35 78 52 126 112
148 184 11 37 27 72 35 79 11 9 15 32 15 84 -1 63 -4 75 -30 110 -17 22 -30
51 -30 65 -1 14 -6 38 -13 53 -17 39 -129 134 -174 148 -21 7 -45 18 -53 24
-60 45 -146 66 -271 66 -73 0 -81 2 -112 30 -19 17 -46 30 -60 30 -14 0 -29 5
-32 10 -3 6 -16 10 -28 10 -98 1 -217 109 -217 197 0 37 63 169 87 181 10 5
37 13 60 17 24 4 45 11 49 16 3 5 16 9 29 9 25 0 93 22 129 42 15 8 32 4 75
-15 31 -14 74 -30 96 -36 105 -28 148 -45 158 -63 7 -11 43 -35 81 -53 76 -37
79 -36 144 12 28 21 32 29 32 73 0 45 -3 51 -47 89 -27 22 -77 55 -113 72 -36
18 -79 43 -96 56 -17 12 -40 23 -50 23 -11 0 -25 5 -31 11 -16 16 -295 26
-393 14z"/>
<path d="M11142 15483 c-45 -22 -72 -78 -72 -148 0 -51 -10 -69 -25 -45 -3 5
-23 14 -45 20 -26 7 -45 20 -56 40 -10 16 -25 31 -33 34 -16 5 -72 37 -81 46
-13 13 -52 30 -68 30 -10 0 -24 6 -30 13 -10 9 -71 12 -237 12 -166 0 -227 -3
-236 -12 -7 -7 -21 -13 -30 -13 -16 0 -99 -39 -109 -51 -3 -3 -18 -13 -35 -22
-40 -20 -221 -200 -266 -265 -21 -28 -42 -74 -49 -102 -7 -27 -16 -53 -21 -56
-5 -3 -17 -22 -25 -42 -56 -127 -55 -443 1 -532 12 -19 26 -51 30 -70 9 -46
32 -95 67 -147 15 -23 28 -46 28 -52 0 -6 5 -11 10 -11 6 0 10 -4 10 -10 0
-19 106 -118 180 -166 79 -53 113 -68 170 -80 19 -3 58 -18 85 -33 45 -23 63
-26 173 -29 127 -4 162 3 210 39 13 10 44 21 70 24 68 10 128 34 175 71 23 19
47 34 53 34 5 0 23 13 39 30 15 16 32 27 37 24 4 -3 8 -30 8 -61 0 -50 4 -62
41 -110 40 -51 43 -53 88 -53 38 0 52 5 72 26 l24 26 3 786 c1 433 0 797 -3
809 -11 48 -98 74 -153 46z m-547 -223 c86 -14 155 -36 179 -59 12 -11 26 -21
29 -21 4 0 31 -18 60 -41 53 -41 106 -104 107 -126 0 -7 5 -13 10 -13 6 0 10
-7 10 -15 0 -8 4 -15 10 -15 16 0 37 -51 50 -120 16 -84 24 -328 11 -343 -5
-7 -13 -45 -16 -85 -7 -64 -11 -75 -39 -100 -17 -15 -38 -40 -46 -56 -26 -51
-143 -149 -229 -193 l-83 -43 -154 0 c-146 0 -155 1 -196 25 -24 14 -66 37
-95 50 -47 22 -183 146 -183 167 0 4 -16 26 -36 48 -47 51 -54 83 -61 270 -8
206 6 313 46 355 16 16 40 48 54 70 22 35 67 80 186 184 23 20 50 33 80 37 25
4 51 10 56 15 21 16 174 22 250 9z"/>
<path d="M21780 15490 c-51 -12 -66 -38 -73 -125 -3 -42 -8 -79 -11 -82 -10
-10 -48 10 -96 51 -28 24 -72 54 -98 67 -26 13 -49 26 -52 29 -6 6 -44 24 -90
41 -50 20 -431 20 -480 0 -78 -30 -90 -36 -90 -42 0 -4 -24 -18 -52 -32 -118
-56 -277 -210 -298 -287 -6 -22 -25 -56 -41 -75 -31 -35 -42 -65 -59 -165 -5
-30 -16 -93 -25 -139 -14 -77 -14 -92 1 -170 9 -47 20 -111 24 -141 12 -79 24
-113 64 -179 20 -32 36 -62 36 -66 0 -4 19 -27 43 -50 23 -24 65 -68 92 -99
28 -30 62 -62 77 -71 15 -8 39 -27 53 -41 28 -28 83 -54 115 -54 12 0 42 -11
68 -25 26 -14 54 -25 62 -25 9 0 21 -5 27 -11 7 -7 58 -9 144 -7 128 3 137 4
199 36 36 17 77 32 93 32 36 0 63 14 107 55 19 18 46 36 60 40 14 4 44 21 67
36 23 16 44 26 46 22 3 -5 8 -35 12 -68 14 -115 46 -158 116 -153 39 3 47 8
81 53 l38 50 0 756 c0 840 3 806 -66 835 -37 15 -43 16 -94 4z m-565 -230
c188 -34 166 -23 291 -145 75 -73 114 -119 114 -133 0 -22 10 -49 41 -117 39
-84 49 -128 49 -220 0 -93 -9 -135 -51 -225 -43 -94 -64 -135 -69 -140 -3 -3
-17 -21 -30 -40 -43 -61 -79 -96 -122 -118 -24 -11 -65 -37 -93 -56 l-50 -36
-181 0 c-177 0 -182 1 -215 25 -19 13 -53 37 -76 52 -52 35 -129 107 -151 141
-9 15 -22 31 -29 35 -7 4 -20 22 -29 39 -24 47 -94 285 -94 321 0 32 63 266
81 299 5 10 9 27 9 37 0 18 36 62 108 133 13 13 42 42 65 65 36 36 53 45 117
59 152 34 226 40 315 24z"/>
<path d="M23423 15487 c-66 -24 -62 28 -63 -839 l0 -787 36 -37 c34 -34 40
-36 86 -32 27 3 57 13 68 23 51 47 50 22 50 837 0 770 0 775 -35 813 -12 14
-72 35 -94 34 -9 0 -30 -6 -48 -12z"/>
<path d="M18473 15480 c-12 -5 -26 -18 -32 -29 -8 -13 -11 -271 -11 -814 l0
-794 27 -27 c23 -23 34 -27 77 -24 l50 3 20 50 c18 46 19 83 22 465 4 383 12
528 34 555 4 5 10 26 13 45 10 68 26 112 45 131 11 10 33 35 49 56 15 21 33
41 40 46 6 4 31 25 55 46 50 46 104 61 245 68 126 6 266 -26 303 -70 14 -16
41 -39 61 -52 28 -18 41 -37 58 -86 13 -34 35 -83 50 -108 l26 -46 5 -528 5
-529 28 -24 c21 -18 40 -24 73 -24 44 0 46 2 64 43 11 23 22 46 25 49 4 4 6
235 6 515 -1 412 -4 522 -16 580 -19 91 -30 120 -62 161 -14 19 -37 56 -52 83
-26 49 -158 169 -186 169 -7 0 -35 15 -61 33 -80 54 -119 62 -309 62 -153 0
-177 -2 -242 -24 -40 -13 -82 -33 -92 -43 -11 -10 -27 -18 -35 -18 -8 0 -16
-4 -18 -8 -5 -13 -76 -51 -82 -45 -3 4 -6 13 -6 21 0 13 -23 45 -75 105 -16
18 -65 22 -102 7z"/>
<path d="M24765 15484 c-57 -8 -110 -28 -149 -56 -22 -15 -46 -28 -54 -28 -27
0 -124 -72 -195 -144 -65 -67 -106 -131 -107 -167 0 -8 -16 -30 -35 -49 -19
-19 -35 -42 -35 -51 0 -10 -4 -21 -10 -24 -5 -3 -10 -22 -10 -41 0 -19 -10
-54 -22 -77 -20 -38 -22 -57 -23 -192 0 -123 3 -158 18 -194 10 -25 22 -63 27
-85 18 -83 23 -100 31 -111 5 -5 20 -24 34 -41 14 -18 25 -37 25 -42 0 -6 16
-27 37 -47 20 -19 50 -56 67 -83 17 -26 53 -61 81 -79 28 -18 64 -44 82 -59
44 -38 74 -53 104 -54 14 0 48 -11 75 -25 27 -14 57 -25 66 -25 9 0 20 -4 23
-10 9 -15 243 -12 285 3 19 7 50 21 68 30 17 10 56 22 84 27 51 10 128 51 128
69 0 5 15 14 33 22 17 7 49 26 69 42 20 16 41 27 46 23 5 -3 12 -22 15 -43 26
-161 39 -183 106 -183 52 0 62 7 99 73 l22 38 0 743 c0 545 -3 752 -12 777
-17 50 -45 68 -104 69 -69 0 -94 -22 -94 -81 0 -48 -22 -121 -38 -127 -5 -1
-38 19 -73 45 -36 26 -82 57 -104 68 -22 11 -54 30 -71 43 -17 12 -40 22 -50
22 -11 0 -25 5 -32 12 -11 11 -341 21 -407 12z m270 -224 c149 -25 189 -40
232 -83 24 -23 53 -51 66 -63 12 -11 29 -29 38 -40 9 -10 27 -29 42 -41 14
-12 31 -41 37 -65 24 -93 44 -155 67 -200 34 -70 30 -162 -12 -263 -7 -16 -20
-55 -30 -85 -9 -30 -22 -66 -28 -80 -30 -67 -143 -192 -198 -220 -19 -10 -55
-35 -78 -54 l-43 -36 -188 0 c-200 0 -190 -2 -255 53 -5 5 -35 21 -65 36 -34
18 -67 45 -88 72 -18 24 -44 58 -58 74 -13 17 -24 36 -24 43 0 6 -4 12 -10 12
-5 0 -10 6 -10 12 0 7 -16 45 -36 84 -41 83 -53 165 -42 289 7 76 12 95 46
175 8 19 18 44 22 55 5 11 11 32 14 46 6 26 185 217 222 237 10 5 42 13 69 17
28 4 55 11 60 16 21 16 175 22 250 9z"/>
<path d="M15300 15299 c-30 -4 -84 -7 -121 -8 -74 -1 -113 -16 -128 -48 -10
-23 -64 -43 -114 -43 -19 0 -40 -12 -66 -39 -27 -28 -51 -42 -77 -46 -60 -10
-84 -22 -94 -50 -6 -17 -26 -33 -55 -46 -25 -11 -49 -29 -55 -39 -13 -24 -54
-46 -102 -55 -29 -5 -40 -14 -53 -41 -9 -19 -27 -41 -41 -50 -31 -21 -31 -57
1 -126 14 -29 25 -63 25 -76 0 -28 -18 -64 -37 -75 -11 -7 -11 -14 5 -40 10
-18 29 -58 42 -90 24 -62 45 -79 111 -91 25 -4 47 -18 70 -46 29 -34 41 -40
86 -46 46 -5 58 -12 87 -46 28 -35 41 -42 87 -49 44 -7 59 -15 84 -43 18 -22
42 -38 60 -40 17 -3 47 -8 68 -11 21 -3 47 -17 60 -31 30 -33 51 -37 191 -41
125 -4 156 2 211 42 17 12 41 26 55 30 29 9 60 34 60 48 0 6 14 40 32 76 37
78 39 135 7 187 -11 19 -27 68 -34 110 -12 68 -17 79 -49 106 -43 35 -44 50
-9 101 30 43 53 100 53 133 0 11 14 58 30 103 33 91 33 99 -12 201 -31 70 -33
74 -62 88 -15 8 -30 21 -33 30 -17 48 -24 50 -198 66 -16 1 -55 -1 -85 -5z"/>
<path d="M12072 15281 c-8 -4 -19 -19 -26 -32 -6 -13 -24 -30 -40 -37 -15 -8
-37 -29 -48 -48 -11 -19 -24 -34 -29 -34 -5 0 -18 -9 -29 -20 -17 -17 -20 -33
-20 -112 l0 -92 44 -41 43 -40 6 -105 c8 -131 -4 -228 -33 -275 -12 -19 -25
-35 -30 -35 -19 0 -31 -62 -28 -150 3 -93 4 -95 31 -108 16 -8 37 -28 47 -45
10 -18 24 -36 30 -42 7 -5 32 -29 56 -52 l43 -43 113 0 c62 0 144 3 181 7 60
5 69 9 84 34 21 35 52 49 113 49 49 0 90 23 90 50 0 15 56 40 92 40 37 0 78
24 78 45 0 21 38 43 97 55 40 9 57 19 77 45 14 18 37 36 51 39 14 4 34 20 44
36 10 16 33 40 52 53 l34 23 3 177 c3 241 -7 275 -91 298 -28 7 -57 26 -85 55
-35 36 -49 44 -78 44 -44 0 -91 24 -99 50 -4 11 -26 30 -50 41 -24 11 -46 26
-48 34 -8 19 -64 45 -122 56 -29 5 -65 22 -87 39 -20 17 -46 30 -57 30 -11 0
-23 5 -26 10 -8 12 -364 13 -383 1z"/>
<path d="M13708 15011 c-46 -10 -140 -66 -179 -108 -52 -58 -97 -153 -99 -208
-4 -124 0 -152 25 -186 13 -19 33 -50 44 -70 28 -51 86 -106 127 -119 59 -20
203 -26 288 -13 83 13 121 31 130 61 3 10 19 25 34 34 17 10 42 44 63 84 31
62 33 74 33 158 -1 82 -4 96 -32 146 -29 51 -107 133 -182 189 -49 37 -155 50
-252 32z"/>
<path d="M13315 14230 c-16 -11 -50 -22 -75 -26 -62 -9 -90 -21 -90 -38 0 -23
-50 -56 -85 -56 -50 0 -89 -18 -107 -49 -16 -29 -65 -51 -115 -51 -13 0 -33
-14 -49 -36 -15 -19 -42 -41 -61 -49 -18 -8 -37 -25 -42 -37 -13 -34 -32 -47
-87 -57 -36 -7 -54 -17 -69 -37 -11 -15 -37 -47 -57 -69 -30 -34 -41 -56 -53
-115 -15 -73 -25 -93 -54 -118 -11 -8 -15 -29 -14 -68 1 -48 6 -60 31 -85 16
-16 32 -42 35 -59 5 -21 16 -34 36 -42 17 -7 41 -29 53 -48 l24 -35 109 -5
c108 -5 111 -6 200 -54 105 -57 121 -69 129 -101 3 -13 20 -33 37 -45 17 -13
41 -45 53 -74 35 -79 62 -88 237 -84 l140 3 32 36 c18 20 44 43 58 52 22 13
27 25 31 73 4 52 9 61 46 93 l41 36 3 101 c3 93 6 105 33 145 l30 44 0 216 c0
136 -4 225 -11 240 -32 70 -53 150 -54 201 0 43 -22 62 -85 73 -46 8 -85 30
-85 48 0 7 -8 18 -17 25 -56 38 -109 72 -113 72 -3 0 -18 -9 -35 -20z"/>
<path d="M14173 14185 c-13 -9 -23 -23 -23 -30 0 -28 -65 -53 -143 -55 -9 0
-23 -12 -29 -27 -6 -16 -29 -45 -50 -65 l-39 -37 3 -313 3 -313 38 -109 c21
-61 41 -139 44 -175 6 -65 23 -101 50 -101 7 0 23 -20 35 -45 12 -25 30 -47
39 -50 10 -3 29 -21 44 -40 l26 -35 137 0 c75 0 142 4 147 8 6 4 18 19 28 34
9 15 30 34 46 42 15 8 34 29 41 46 7 17 24 38 39 46 14 9 40 35 56 58 22 29
43 45 75 55 25 8 72 27 105 43 49 23 74 28 135 28 99 0 117 6 135 45 9 18 30
38 48 46 30 13 32 18 43 96 7 45 15 86 18 92 4 6 0 31 -9 56 -8 25 -15 64 -15
87 0 34 -6 47 -38 77 -20 20 -43 48 -51 62 -7 15 -24 32 -37 38 -14 6 -34 26
-45 45 -11 19 -31 37 -44 40 -14 4 -36 24 -50 45 -16 26 -36 43 -60 51 -20 6
-43 23 -52 36 -10 16 -34 29 -72 40 -38 11 -66 26 -87 49 -26 28 -43 36 -97
45 -58 11 -107 37 -107 58 0 17 -72 34 -165 39 -82 4 -104 2 -122 -12z"/>
</g>
</svg>
