<svg width="90" height="29" viewBox="0 0 90 29" fill="none" xmlns="http://www.w3.org/2000/svg">
<path d="M6965 12833 c-16 -2 -49 -11 -73 -19 -27 -9 -85 -14 -162 -14 -91 0
-134 -5 -177 -19 -32 -11 -89 -22 -128 -26 -38 -3 -81 -13 -94 -22 -15 -9 -61
-19 -115 -23 -50 -4 -108 -15 -128 -24 -21 -9 -61 -16 -90 -16 -34 0 -67 -7
-91 -20 -20 -11 -54 -20 -75 -20 -21 0 -56 -9 -77 -20 -22 -11 -58 -23 -80
-26 -22 -4 -51 -13 -65 -22 -14 -9 -51 -19 -82 -23 -31 -4 -64 -14 -73 -23 -9
-9 -29 -16 -44 -16 -15 0 -38 -9 -51 -20 -13 -11 -33 -20 -45 -20 -12 0 -43
-11 -69 -25 -26 -14 -55 -25 -65 -25 -10 0 -28 -9 -41 -20 -13 -11 -33 -20
-45 -20 -12 0 -32 -9 -45 -20 -13 -11 -33 -20 -45 -20 -12 0 -33 -8 -46 -19
-13 -10 -35 -21 -49 -25 -26 -8 -89 -36 -152 -67 -20 -11 -43 -19 -50 -19 -8
0 -32 -9 -53 -21 -22 -11 -62 -23 -89 -26 -28 -3 -57 -14 -68 -25 -10 -10 -32
-18 -48 -18 -18 0 -33 -6 -36 -15 -3 -8 -22 -19 -42 -26 -21 -6 -41 -18 -45
-25 -4 -8 -14 -14 -21 -14 -7 0 -24 -8 -37 -19 -13 -10 -35 -22 -49 -26 -14
-4 -31 -16 -38 -26 -7 -11 -19 -19 -26 -19 -7 0 -25 -9 -39 -20 -14 -11 -31
-20 -37 -20 -7 0 -25 -11 -42 -25 -16 -14 -35 -25 -42 -25 -6 0 -31 -18 -54
-40 -22 -22 -44 -40 -48 -40 -4 0 -17 -10 -29 -22 -12 -13 -34 -32 -48 -43
-15 -11 -38 -30 -52 -42 -15 -13 -33 -23 -40 -23 -8 0 -20 -9 -27 -20 -7 -11
-17 -20 -23 -20 -5 0 -18 -9 -30 -20 -11 -11 -72 -62 -135 -113 -63 -51 -173
-152 -245 -226 -71 -73 -164 -166 -205 -207 -41 -40 -126 -123 -188 -183 -62
-61 -117 -111 -122 -111 -6 0 -10 -5 -10 -10 0 -6 -11 -20 -25 -32 -14 -12
-25 -27 -25 -33 0 -7 -9 -20 -20 -30 -11 -10 -20 -24 -20 -31 0 -7 -11 -25
-25 -40 -14 -15 -25 -31 -25 -37 0 -9 -35 -56 -66 -89 -9 -10 -22 -26 -28 -36
-38 -63 -59 -92 -67 -92 -5 0 -14 -11 -19 -25 -5 -14 -17 -28 -25 -31 -8 -4
-15 -13 -15 -21 0 -7 -11 -25 -25 -39 -14 -14 -25 -29 -25 -34 0 -5 -8 -15
-18 -22 -10 -7 -24 -27 -31 -45 -7 -17 -19 -34 -25 -36 -7 -3 -16 -19 -19 -35
-3 -16 -13 -36 -21 -44 -8 -8 -22 -30 -30 -49 -16 -34 -22 -45 -63 -110 -13
-19 -23 -42 -23 -52 0 -9 -6 -20 -14 -24 -8 -4 -21 -25 -29 -45 -9 -21 -21
-38 -26 -38 -6 0 -15 -18 -21 -39 -5 -21 -17 -42 -25 -45 -8 -3 -15 -18 -15
-33 0 -15 -11 -46 -25 -68 -13 -22 -25 -50 -25 -62 0 -13 -9 -32 -20 -43 -11
-11 -20 -30 -20 -43 0 -13 -11 -38 -25 -57 -14 -19 -25 -42 -25 -51 0 -22 -21
-69 -30 -69 -4 0 -10 -18 -13 -40 -3 -21 -14 -51 -26 -66 -12 -15 -21 -41 -21
-60 0 -21 -7 -38 -19 -46 -12 -9 -21 -32 -26 -68 -4 -30 -16 -66 -26 -79 -13
-16 -19 -40 -19 -77 0 -40 -5 -59 -20 -74 -11 -11 -22 -40 -26 -72 -4 -29 -14
-61 -22 -71 -9 -10 -19 -47 -23 -83 -4 -37 -13 -72 -23 -83 -11 -12 -19 -49
-24 -119 -5 -60 -15 -108 -23 -118 -8 -9 -17 -53 -20 -101 -5 -57 -12 -90 -24
-103 -12 -13 -18 -44 -22 -117 -3 -70 -10 -105 -22 -123 -15 -21 -19 -58 -25
-215 -3 -104 -11 -221 -16 -260 -13 -95 -12 -476 0 -568 6 -41 14 -154 19
-250 5 -128 11 -180 22 -193 10 -12 16 -61 20 -178 6 -136 10 -167 28 -201 15
-27 21 -58 21 -98 0 -41 6 -70 19 -91 12 -20 20 -59 24 -109 4 -55 11 -85 23
-98 12 -13 19 -44 24 -97 3 -44 12 -88 22 -102 8 -14 18 -51 22 -83 4 -37 13
-64 26 -77 13 -13 20 -33 20 -58 0 -24 7 -47 19 -61 10 -12 22 -42 26 -67 3
-25 15 -54 26 -65 11 -11 19 -33 19 -53 0 -18 9 -45 20 -59 11 -14 23 -40 27
-59 3 -18 15 -39 25 -46 10 -8 18 -25 18 -42 0 -18 7 -33 19 -39 10 -6 22 -27
25 -46 4 -20 16 -45 27 -56 10 -10 19 -27 19 -38 0 -10 8 -29 19 -42 10 -13
22 -35 26 -49 4 -14 15 -36 25 -50 9 -14 20 -38 24 -55 4 -16 16 -38 27 -48
10 -10 19 -26 19 -36 0 -10 9 -26 20 -36 11 -10 20 -26 20 -35 0 -9 11 -31 25
-50 14 -19 25 -38 25 -42 0 -4 9 -17 20 -28 11 -11 20 -28 20 -38 0 -10 11
-28 25 -40 14 -12 25 -32 25 -43 0 -12 10 -32 22 -44 45 -44 68 -77 68 -95 0
-10 9 -22 20 -25 11 -3 20 -12 20 -19 0 -7 11 -25 25 -40 14 -15 25 -35 25
-46 0 -10 9 -22 20 -25 11 -3 20 -10 20 -15 0 -5 11 -21 25 -36 14 -15 25 -32
25 -39 0 -11 26 -45 70 -90 11 -12 20 -29 20 -39 0 -10 14 -31 31 -47 l30 -28
37 19 c20 11 43 20 50 20 8 0 25 9 39 20 14 11 33 20 43 20 10 0 29 9 43 20
14 11 34 20 45 20 10 0 30 8 43 19 13 10 35 22 49 26 14 4 39 16 56 26 17 11
38 19 46 19 9 0 21 7 28 15 7 8 31 20 54 26 22 6 48 17 57 25 8 7 30 17 49 20
18 4 41 15 52 26 10 10 31 18 47 18 16 0 34 6 40 14 7 8 35 20 64 26 28 6 58
17 67 24 8 7 33 16 54 19 22 4 42 11 45 16 8 13 57 31 83 31 11 0 31 9 45 20
14 11 39 20 56 20 17 0 39 7 49 16 10 10 41 21 69 25 28 5 59 15 68 24 10 8
40 18 67 21 27 4 56 13 66 21 9 8 40 18 70 22 30 4 65 15 78 24 14 9 41 17 61
17 21 0 45 8 58 19 13 12 46 23 79 27 31 4 70 15 87 25 16 11 43 19 59 19 16
0 37 7 47 16 9 8 41 19 71 23 29 4 64 14 78 23 14 9 45 19 70 23 25 4 52 14
61 21 9 8 40 17 68 21 29 3 69 14 89 24 20 11 54 19 75 19 22 0 54 8 71 19 17
10 59 21 94 24 37 3 71 12 81 21 11 10 46 18 97 22 54 5 87 13 103 26 18 13
41 18 90 18 43 0 74 5 88 15 12 9 54 19 93 24 45 6 76 15 83 25 8 11 36 18 87
22 43 4 95 15 122 28 l47 21 1 211 c0 164 -3 217 -14 240 -11 21 -16 82 -19
230 -3 172 -7 204 -22 228 -14 20 -20 57 -25 139 -5 70 -13 123 -23 142 -9 18
-18 72 -22 140 -4 62 -13 123 -21 140 -8 17 -18 50 -21 75 -3 25 -14 54 -25
66 -12 14 -20 43 -25 90 -4 44 -13 78 -25 93 -10 13 -18 39 -18 58 0 18 -9 46
-20 61 -12 16 -23 51 -27 82 -3 30 -13 64 -23 75 -11 12 -19 42 -22 77 -3 36
-11 65 -22 77 -10 11 -21 44 -25 75 -4 31 -15 64 -23 73 -9 10 -18 39 -20 65
-3 26 -15 58 -27 74 -11 15 -21 41 -21 59 0 18 -8 39 -19 49 -10 9 -21 35 -24
57 -3 22 -13 49 -22 59 -9 9 -18 35 -22 56 -3 22 -14 53 -23 69 -10 17 -21 46
-25 65 -4 19 -16 43 -26 53 -12 11 -19 32 -19 57 0 25 -7 46 -19 57 -10 10
-22 36 -25 57 -4 22 -16 51 -27 64 -10 14 -19 32 -19 41 0 9 -9 24 -20 34 -11
9 -20 25 -20 35 0 10 -11 33 -25 52 -14 19 -25 41 -25 51 0 9 -9 28 -21 42
-11 15 -23 43 -26 62 -3 20 -14 40 -24 46 -13 6 -19 21 -19 44 0 24 -6 37 -20
45 -10 6 -22 26 -26 44 -3 19 -15 42 -25 52 -10 9 -19 27 -19 40 0 13 -8 31
-19 41 -10 10 -22 29 -26 43 -4 14 -16 33 -26 43 -11 10 -19 29 -19 42 0 13
-9 30 -20 38 -11 8 -23 28 -26 46 -4 17 -14 36 -24 41 -10 5 -20 24 -24 41 -3
18 -15 38 -26 46 -11 8 -20 23 -20 35 0 11 -11 33 -25 50 -14 16 -25 35 -25
42 0 7 -9 21 -20 31 -11 10 -20 25 -20 34 0 9 -9 24 -20 34 -11 9 -20 23 -20
31 0 8 -11 27 -25 42 -14 15 -25 36 -25 47 0 11 -11 30 -25 43 -14 13 -25 33
-25 46 0 13 -9 29 -20 36 -11 7 -20 18 -20 25 0 7 -11 28 -25 47 -14 19 -25
40 -25 47 0 7 -9 22 -20 33 -11 11 -20 27 -20 35 0 8 -11 25 -25 39 -14 14
-25 34 -25 45 0 11 -9 25 -20 31 -11 6 -20 16 -20 21 0 16 -61 107 -75 113 -7
2 -16 17 -20 33 -3 15 -15 36 -26 46 -10 10 -19 23 -19 30 0 7 -9 18 -19 24
-11 7 -22 26 -26 43 -4 16 -12 30 -18 30 -12 0 -32 28 -69 93 -10 17 -24 35
-33 39 -8 5 -15 16 -15 24 0 15 -21 47 -67 101 -13 14 -23 34 -23 44 0 11 -10
29 -22 42 -21 20 -23 32 -23 120 0 87 2 101 20 115 12 10 24 25 28 35 3 9 12
17 19 17 8 0 21 9 30 19 33 39 187 39 237 0 13 -11 28 -19 33 -19 28 0 152
-115 164 -152 3 -10 12 -18 20 -18 8 0 14 -4 14 -9 0 -14 62 -76 83 -84 9 -3
17 -13 17 -22 0 -8 5 -15 11 -15 6 0 31 -20 56 -45 24 -25 48 -45 53 -45 5 0
12 -9 15 -20 3 -11 11 -20 16 -20 6 0 51 -41 100 -90 50 -50 94 -90 100 -90 5
0 9 -6 9 -14 0 -8 9 -17 19 -21 11 -3 23 -15 26 -25 3 -10 15 -22 26 -25 10
-4 19 -13 19 -21 0 -8 7 -14 15 -14 8 0 19 -8 24 -18 6 -11 38 -48 73 -83 35
-36 120 -124 190 -197 70 -73 132 -132 137 -132 5 0 12 -9 16 -19 3 -10 15
-21 25 -24 11 -3 20 -12 20 -20 0 -9 9 -19 20 -22 11 -3 25 -15 30 -26 6 -10
15 -19 20 -19 5 0 48 -38 94 -85 47 -47 87 -85 89 -85 2 0 22 -16 43 -36 22
-20 53 -43 69 -51 17 -9 34 -22 38 -29 4 -8 14 -14 22 -14 8 0 19 -9 25 -19 5
-11 19 -23 30 -26 11 -3 20 -12 20 -20 0 -8 9 -17 20 -20 11 -3 25 -15 30 -26
6 -10 16 -19 23 -19 7 0 18 -9 25 -20 7 -11 18 -20 25 -20 18 0 87 -50 130
-93 21 -20 41 -37 46 -37 4 0 16 -9 26 -20 10 -11 27 -22 39 -26 21 -6 35 -17
80 -61 13 -13 29 -23 35 -23 6 0 14 -6 17 -14 6 -15 96 -76 113 -76 5 0 15 -9
21 -20 6 -11 17 -20 25 -20 8 0 18 -6 22 -14 10 -18 74 -62 104 -71 13 -5 30
-16 37 -26 7 -11 19 -19 25 -19 7 0 23 -9 37 -20 14 -11 33 -20 42 -20 10 0
23 -9 30 -20 7 -11 23 -20 35 -20 12 0 34 -11 49 -25 15 -14 37 -25 49 -25 12
0 30 -9 40 -20 10 -11 25 -20 32 -20 8 0 26 -9 40 -20 14 -11 31 -20 38 -20 7
0 23 -8 36 -19 13 -10 35 -22 49 -26 14 -4 33 -16 43 -26 10 -11 27 -19 37
-19 11 0 28 -9 37 -20 10 -11 25 -20 34 -20 9 0 27 -9 41 -19 13 -11 36 -23
51 -26 14 -4 28 -13 31 -20 2 -7 20 -16 38 -20 18 -4 44 -16 57 -26 13 -11 34
-19 47 -19 12 0 26 -4 29 -10 9 -15 25 -12 25 5 0 8 -6 15 -14 15 -7 0 -24 9
-38 19 -13 11 -37 23 -52 27 -14 3 -31 15 -37 25 -5 11 -16 19 -23 19 -7 0
-21 9 -31 20 -10 11 -24 20 -31 20 -7 0 -25 11 -40 25 -15 14 -33 25 -40 25
-8 0 -14 5 -14 11 0 5 -17 17 -37 26 -21 8 -42 21 -46 29 -4 8 -14 14 -21 14
-7 0 -22 10 -34 23 -45 47 -68 67 -76 67 -5 0 -67 59 -139 130 -71 72 -133
130 -138 130 -5 0 -9 7 -9 16 0 9 -9 18 -20 21 -10 3 -22 13 -25 24 -3 10 -15
21 -26 24 -10 4 -19 11 -19 17 0 6 -11 21 -25 34 -14 13 -25 32 -25 43 0 11
-9 25 -20 31 -11 6 -20 16 -20 22 0 6 -11 21 -25 34 -14 13 -25 32 -25 43 0
11 -9 25 -20 31 -11 6 -20 17 -20 25 0 8 -9 19 -19 25 -11 5 -23 24 -27 42 -3
18 -15 39 -25 46 -11 7 -19 24 -19 38 0 13 -5 24 -11 24 -15 0 -5 -166 11
-186 9 -10 9 -22 0 -49 -6 -19 -13 -35 -15 -35 -1 0 -16 7 -31 15 -16 8 -38
15 -50 15 -11 0 -29 9 -39 20 -10 11 -26 20 -35 20 -10 0 -28 8 -41 19 -13 10
-38 22 -56 25 -43 10 -128 95 -137 136 -3 18 -6 161 -6 319 -1 283 -1 286 -25
336 -17 35 -25 67 -25 105 0 36 -6 64 -17 79 -9 14 -20 46 -24 73 -4 27 -17
60 -28 75 -12 14 -21 40 -21 58 0 18 -8 43 -18 56 -11 13 -22 38 -26 54 -4 17
-16 38 -27 48 -10 10 -19 30 -19 45 0 15 -7 41 -16 57 -43 79 -61 376 -26 445
14 30 23 35 57 38 69 6 97 -5 153 -60 79 -78 92 -93 92 -103 0 -6 9 -16 20
-23 11 -7 20 -23 20 -36 0 -13 11 -35 25 -50 14 -15 25 -38 25 -52 0 -13 7
-27 15 -30 8 -3 20 -24 26 -45 7 -21 18 -39 25 -39 14 0 24 -22 24 -55 0 -14
9 -29 19 -35 11 -5 22 -23 26 -40 4 -16 13 -34 21 -38 14 -8 41 -51 66 -104 7
-16 18 -28 25 -28 8 0 17 -10 22 -23 13 -33 60 -100 77 -110 8 -4 14 -13 14
-19 0 -15 62 -108 72 -108 4 0 14 -15 21 -32 8 -18 21 -39 30 -47 10 -7 17
-19 17 -27 0 -7 9 -18 20 -24 11 -6 20 -17 20 -25 0 -7 11 -27 25 -43 14 -17
25 -35 25 -40 0 -6 9 -14 20 -17 11 -3 20 -11 20 -16 0 -5 11 -19 25 -31 14
-12 25 -29 25 -38 0 -9 10 -26 23 -37 12 -12 42 -44 67 -73 25 -28 55 -60 68
-72 12 -12 22 -27 22 -33 0 -7 11 -24 25 -39 14 -15 25 -31 25 -35 0 -5 9 -11
20 -14 11 -3 20 -12 20 -20 0 -9 9 -19 20 -22 11 -3 20 -11 20 -16 0 -5 11
-19 25 -31 14 -12 25 -27 25 -33 0 -6 11 -22 25 -35 14 -13 25 -29 25 -36 0
-7 9 -16 20 -19 11 -3 20 -13 20 -22 0 -8 9 -17 20 -20 10 -3 22 -13 25 -24 3
-10 15 -21 26 -24 10 -4 19 -11 19 -16 0 -5 32 -41 70 -79 39 -38 70 -74 70
-80 0 -11 72 -83 250 -250 50 -47 99 -92 108 -101 40 -38 142 -119 150 -119 5
0 18 -10 29 -22 11 -13 33 -32 47 -43 15 -11 46 -39 70 -62 25 -24 49 -43 55
-43 6 0 11 -4 11 -9 0 -11 79 -66 109 -76 12 -3 26 -15 31 -26 6 -10 17 -19
25 -19 7 0 17 -9 20 -20 3 -11 13 -20 20 -20 8 0 20 -9 27 -19 8 -11 26 -23
40 -26 15 -4 34 -15 44 -26 9 -10 23 -19 30 -19 7 0 18 -9 24 -20 6 -11 19
-20 28 -20 10 0 27 -7 40 -15 32 -23 132 -75 144 -75 5 0 21 -9 35 -20 14 -11
33 -20 43 -20 9 0 25 -9 35 -20 10 -11 29 -20 42 -20 13 0 31 -9 40 -20 10
-11 28 -20 40 -20 13 0 32 -9 44 -21 15 -15 39 -23 94 -28 47 -4 81 -13 93
-24 12 -11 35 -17 67 -17 31 0 55 -6 67 -16 10 -10 41 -21 69 -25 28 -5 59
-15 69 -24 9 -8 30 -15 46 -15 59 0 59 0 62 231 3 192 5 215 23 237 11 15 19
40 19 63 0 26 7 46 20 59 13 13 23 42 29 82 4 34 15 66 23 72 8 6 18 21 22 34
4 12 16 27 27 32 10 6 19 17 19 25 0 8 4 15 10 15 5 0 21 17 34 38 13 22 38
44 54 51 17 7 33 19 35 25 3 7 20 16 37 19 17 4 43 16 57 27 14 11 32 20 40
20 8 0 26 9 40 20 14 11 31 20 38 20 8 0 14 21 17 60 3 37 11 66 22 79 10 11
20 43 23 77 3 33 12 67 21 76 8 10 18 48 21 87 4 45 13 76 24 89 12 13 21 45
26 90 4 44 14 78 24 90 10 11 17 35 17 60 0 44 15 93 32 103 6 4 14 41 17 83
5 52 12 80 23 88 10 8 18 35 21 72 4 35 13 66 23 77 12 13 19 42 22 82 3 38
11 71 22 84 10 12 20 49 24 81 5 40 13 65 26 77 12 11 20 31 20 50 0 18 9 44
21 58 11 15 23 44 26 64 3 21 14 49 25 62 10 13 18 37 18 52 0 16 9 38 21 50
14 14 24 39 27 68 2 25 12 55 22 66 10 11 20 40 23 63 3 24 15 54 26 66 12 12
21 35 21 51 0 16 8 37 17 47 9 10 20 43 24 74 5 35 15 65 28 78 12 13 21 36
21 53 0 17 8 37 20 48 34 31 26 72 -25 122 -25 24 -45 52 -45 62 0 10 -9 26
-19 35 -10 10 -22 32 -25 49 -3 18 -15 40 -26 50 -18 15 -20 29 -20 180 0 161
0 165 25 191 14 15 25 35 25 45 0 9 10 27 23 39 47 45 57 59 57 80 0 13 -6 22
-15 22 -9 0 -18 7 -21 15 -5 12 -32 32 -96 71 -9 6 -33 27 -52 47 -19 20 -38
37 -42 37 -8 0 -18 9 -78 68 -13 12 -27 22 -32 22 -5 0 -15 9 -22 20 -7 11
-21 20 -32 20 -11 0 -29 9 -40 20 -11 11 -24 20 -30 20 -5 0 -17 8 -27 19 -10
10 -29 22 -43 26 -23 7 -60 33 -100 69 -8 7 -28 16 -44 20 -17 4 -35 14 -41
22 -11 16 -40 34 -95 60 -19 9 -37 20 -40 25 -9 13 -76 56 -101 64 -13 5 -30
16 -37 26 -7 11 -19 19 -25 19 -7 0 -23 9 -37 20 -14 11 -33 20 -42 20 -10 0
-25 8 -35 19 -10 10 -33 22 -51 26 -18 4 -36 13 -39 21 -3 7 -20 16 -38 20
-19 3 -41 15 -51 25 -9 10 -28 19 -41 19 -12 0 -31 8 -42 19 -10 10 -31 21
-46 25 -16 4 -40 16 -53 27 -14 10 -32 19 -42 19 -9 0 -27 9 -40 20 -13 11
-33 20 -45 20 -12 0 -34 9 -48 20 -14 11 -34 20 -45 20 -10 0 -30 8 -43 19
-13 10 -42 21 -64 25 -22 4 -54 16 -71 27 -17 10 -44 19 -60 19 -16 0 -42 9
-59 20 -16 11 -44 20 -60 20 -17 0 -46 9 -66 19 -20 11 -54 23 -75 27 -22 3
-47 13 -56 21 -10 9 -46 18 -85 21 -37 3 -84 13 -103 23 -20 11 -55 19 -85 19
-27 0 -63 7 -80 16 -16 9 -67 20 -111 24 -45 5 -93 15 -106 24 -13 9 -62 20
-109 25 -47 4 -96 14 -109 21 -16 9 -80 16 -180 20 -106 4 -163 11 -180 21
-21 11 -105 14 -470 15 -245 1 -458 0 -475 -3z m-1145 -6583 c0 -11 10 -30 22
-42 16 -16 24 -40 29 -86 4 -34 13 -70 21 -80 9 -9 18 -41 22 -71 4 -29 15
-65 25 -80 13 -18 21 -52 25 -108 3 -46 12 -96 20 -111 15 -28 39 -249 30
-264 -3 -4 -64 -8 -135 -8 -101 0 -137 -4 -162 -16 -23 -12 -75 -19 -187 -25
-85 -4 -168 -13 -185 -19 -16 -7 -93 -16 -169 -21 -88 -5 -151 -14 -171 -24
-21 -9 -79 -17 -166 -21 -75 -4 -152 -13 -174 -21 -22 -8 -98 -18 -170 -23
-75 -4 -147 -14 -170 -23 -57 -23 -367 -24 -385 -2 -7 8 -24 15 -37 15 -29 0
-103 74 -103 103 0 57 104 167 205 217 28 14 59 32 70 41 11 9 32 19 48 23 15
4 36 15 47 26 11 11 31 20 45 20 13 0 28 6 32 14 4 8 24 21 43 30 19 8 42 19
50 24 54 31 120 62 133 62 8 0 26 9 40 20 14 11 37 20 51 20 14 0 34 9 43 20
10 11 29 20 44 20 14 0 38 9 52 20 14 11 40 23 59 26 18 4 40 13 48 20 8 7 35
17 58 23 24 5 51 16 61 25 10 9 31 16 48 16 17 0 37 8 47 19 9 10 37 22 62 26
24 3 44 10 44 14 0 12 48 31 76 31 14 0 37 9 51 20 17 13 41 20 72 20 27 0 58
8 76 18 17 10 59 22 95 25 61 7 125 32 181 70 13 10 30 17 37 17 8 0 25 9 39
20 29 23 63 12 63 -20z"/>
<path d="M11991 10501 c-6 -10 -26 -21 -47 -24 -20 -3 -42 -14 -49 -24 -11
-15 -32 -18 -175 -18 -171 -1 -179 -3 -180 -51 0 -11 -9 -29 -19 -38 -10 -9
-22 -38 -26 -64 -4 -28 -14 -52 -26 -60 -12 -8 -19 -25 -19 -44 0 -17 -7 -39
-16 -49 -9 -10 -20 -39 -25 -65 -5 -26 -18 -56 -29 -66 -13 -12 -20 -32 -20
-53 0 -21 -8 -43 -20 -55 -11 -11 -22 -40 -26 -69 -4 -30 -14 -57 -25 -67 -11
-10 -19 -30 -19 -47 0 -18 -9 -41 -21 -54 -15 -15 -24 -40 -27 -75 -3 -30 -13
-64 -23 -77 -13 -15 -19 -40 -19 -71 0 -33 -6 -55 -21 -74 -13 -16 -23 -47
-26 -83 -3 -32 -12 -66 -20 -75 -8 -9 -19 -49 -24 -90 -6 -47 -15 -77 -25 -85
-11 -8 -19 -34 -23 -75 -4 -35 -14 -74 -24 -88 -10 -15 -17 -43 -17 -71 0 -32
-7 -55 -21 -73 -17 -21 -22 -46 -26 -114 -4 -57 -11 -97 -23 -117 -10 -16 -20
-55 -23 -85 -3 -30 -13 -70 -23 -89 -22 -44 -33 -214 -14 -236 8 -10 31 -15
71 -15 58 0 59 1 111 55 80 82 98 105 98 125 0 10 9 22 20 25 11 3 20 11 20
16 0 5 11 19 25 31 14 12 25 29 25 38 0 10 11 29 25 44 14 15 25 31 25 37 0 5
7 9 15 9 9 0 18 7 22 16 3 9 17 27 29 40 13 12 24 30 24 38 0 9 9 20 20 26 11
6 20 15 20 21 0 5 20 31 45 57 25 26 45 55 45 64 0 10 11 25 25 34 14 9 25 22
25 29 0 8 9 16 19 20 11 3 23 15 26 26 4 10 13 19 20 19 8 0 17 11 21 24 3 14
14 32 25 42 10 9 19 22 19 27 0 13 66 77 79 77 5 0 12 9 16 19 3 11 14 23 24
26 11 3 21 15 24 25 3 11 12 20 21 20 9 0 16 8 16 20 0 12 11 32 25 46 14 14
25 27 25 30 0 9 69 74 80 74 5 0 10 7 10 16 0 9 9 18 20 21 10 3 22 14 25 24
4 10 10 19 15 19 5 0 29 20 53 45 25 25 50 45 56 45 6 0 11 7 11 15 0 9 11 20
25 25 14 5 25 16 25 25 0 8 4 15 8 15 4 0 25 15 45 34 31 28 37 39 31 60 -3
14 -9 26 -13 26 -16 0 -31 54 -31 110 0 47 4 62 20 73 11 8 22 31 26 57 4 24
15 51 26 62 10 10 18 22 18 28 0 5 11 17 25 26 19 12 25 25 25 50 0 24 -8 41
-25 56 -14 12 -25 26 -25 32 0 6 -9 17 -20 24 -11 7 -20 23 -20 36 0 14 -10
30 -25 40 -15 10 -25 26 -25 41 0 13 -8 30 -18 37 -10 7 -21 21 -25 31 -3 9
-13 17 -20 17 -8 0 -19 11 -25 25 -6 14 -16 25 -21 25 -5 0 -15 16 -21 35 -6
19 -20 40 -31 45 -10 6 -19 17 -19 25 0 24 -96 21 -109 -4z"/>
<path d="M6641 9398 c-1 -9 -9 -23 -19 -30 -18 -13 -52 -61 -63 -88 -3 -8 2
-26 12 -39 11 -13 19 -29 19 -36 0 -7 11 -24 25 -39 14 -15 25 -37 25 -49 0
-12 9 -28 20 -34 10 -7 22 -28 26 -48 3 -20 12 -35 20 -35 8 0 17 -13 20 -30
4 -16 10 -27 15 -25 13 9 -2 107 -22 143 -12 21 -19 53 -19 88 0 35 -7 67 -20
91 -11 21 -20 51 -21 68 -1 35 -16 89 -18 63z"/>
<path d="M12420 9295 c-63 -58 -118 -105 -123 -105 -5 0 -28 -20 -51 -45 -24
-25 -48 -45 -54 -45 -7 0 -12 -4 -12 -9 0 -5 -22 -32 -50 -60 -27 -28 -50 -55
-50 -60 0 -4 -11 -20 -25 -35 -14 -15 -25 -31 -25 -37 0 -5 -6 -9 -14 -9 -8 0
-18 -9 -21 -20 -3 -11 -10 -20 -15 -20 -9 0 -103 -93 -175 -175 -27 -31 -58
-64 -67 -73 -10 -9 -18 -21 -18 -26 0 -5 -20 -28 -45 -52 -25 -23 -45 -46 -45
-51 0 -6 -9 -18 -19 -27 -11 -10 -22 -28 -25 -41 -3 -13 -15 -26 -25 -30 -10
-3 -21 -15 -24 -25 -3 -11 -12 -20 -21 -20 -9 0 -16 -5 -16 -10 0 -6 -11 -20
-25 -32 -14 -12 -25 -27 -25 -34 0 -7 -11 -26 -25 -42 -14 -17 -25 -34 -25
-39 0 -5 -9 -16 -20 -26 -11 -9 -20 -24 -20 -32 0 -9 -20 -35 -45 -59 -25 -25
-45 -48 -45 -53 0 -5 -11 -24 -25 -43 -29 -39 -32 -68 -9 -77 9 -3 45 -35 80
-70 35 -34 68 -63 74 -63 5 0 10 -6 10 -13 0 -7 11 -23 25 -35 14 -12 25 -29
25 -38 0 -9 10 -27 23 -40 12 -13 32 -33 45 -46 12 -13 22 -35 22 -50 0 -14 9
-37 21 -51 11 -15 23 -44 26 -64 3 -21 14 -49 25 -62 15 -20 18 -43 18 -162 0
-127 -2 -141 -20 -156 -14 -12 -20 -30 -20 -56 0 -28 -7 -44 -25 -61 -14 -13
-25 -31 -25 -40 0 -9 -9 -25 -19 -35 -11 -11 -24 -29 -31 -40 -6 -12 -17 -21
-25 -21 -8 0 -15 -6 -15 -12 0 -7 -17 -26 -37 -43 -19 -16 -45 -40 -56 -52
-11 -13 -26 -23 -32 -23 -6 0 -18 -9 -28 -20 -9 -11 -24 -20 -33 -20 -9 0 -29
-11 -46 -25 -16 -14 -40 -25 -54 -25 -13 0 -33 -9 -44 -20 -11 -11 -32 -20
-48 -20 -15 0 -35 -9 -45 -20 -11 -14 -29 -20 -57 -20 -27 0 -45 -6 -58 -20
-13 -14 -37 -23 -73 -27 -30 -3 -62 -12 -71 -20 -9 -8 -44 -17 -79 -20 l-62
-6 24 -18 c22 -16 24 -27 27 -111 4 -86 2 -95 -20 -120 -12 -14 -36 -49 -53
-77 -16 -28 -33 -51 -37 -51 -4 0 -14 -12 -22 -27 -8 -16 -33 -48 -55 -72 -23
-24 -41 -46 -41 -48 0 -3 -19 -22 -41 -43 l-42 -38 115 -3 c83 -3 120 -8 133
-19 10 -8 36 -20 59 -25 l41 -11 3 -91 c3 -84 1 -92 -18 -98 -11 -3 -20 -12
-20 -19 0 -15 -191 -196 -207 -196 -5 0 -27 -21 -190 -179 -82 -80 -103 -106
-103 -128 0 -15 -9 -39 -20 -53 -26 -33 -26 -76 0 -90 11 -6 20 -15 20 -21 0
-5 14 -22 31 -37 17 -15 42 -37 54 -50 12 -12 26 -22 30 -22 4 0 18 -9 32 -20
14 -11 36 -20 48 -20 12 0 34 -9 48 -20 14 -11 40 -20 60 -20 19 0 45 -8 58
-19 17 -13 45 -20 96 -23 58 -3 76 -8 87 -23 13 -18 30 -20 179 -25 138 -4
168 -8 184 -23 16 -14 39 -17 134 -17 93 0 119 -3 139 -17 21 -15 55 -19 206
-23 153 -4 185 -8 201 -22 14 -13 46 -19 118 -24 63 -5 109 -13 124 -23 17
-11 62 -17 171 -21 122 -4 151 -8 167 -23 15 -13 37 -17 92 -17 51 0 83 -6
109 -19 27 -14 64 -20 132 -23 l95 -3 3 32 c2 18 11 38 21 45 10 7 21 29 25
48 3 20 15 43 26 53 14 12 20 29 20 62 0 34 5 47 19 55 13 6 22 25 26 55 4 24
16 54 26 66 10 12 19 34 19 49 0 15 10 39 21 54 12 15 24 48 27 74 3 26 13 58
23 71 11 13 19 39 19 57 0 21 8 40 21 53 16 15 22 35 26 88 4 46 10 72 21 81
11 8 18 36 23 82 4 47 12 77 24 90 14 16 19 41 22 108 3 56 11 101 22 127 11
23 21 76 25 128 3 48 13 106 22 130 8 23 19 89 24 147 4 58 16 143 25 190 24
126 24 1105 0 1195 -9 33 -20 114 -25 180 -5 66 -15 136 -23 155 -8 19 -18 78
-22 130 -5 62 -13 105 -25 125 -12 21 -19 59 -22 128 -4 78 -9 100 -23 111
-13 9 -19 33 -24 84 -4 42 -13 78 -23 89 -9 10 -18 45 -21 80 -3 42 -12 71
-26 89 -12 15 -21 41 -21 59 0 18 -8 43 -18 56 -11 13 -22 41 -25 63 -3 21
-14 47 -23 58 -11 12 -19 41 -22 79 -3 42 -10 63 -22 72 -9 7 -20 26 -24 43
-4 18 -16 40 -27 50 -13 12 -19 30 -19 61 0 31 -6 48 -20 60 -11 9 -22 36 -26
60 -3 24 -15 54 -25 67 -11 13 -19 29 -19 35 0 7 -41 11 -123 11 l-123 0 -114
-105z"/>
<path d="M5550 8460 c0 -5 5 -10 11 -10 5 0 7 5 4 10 -3 6 -8 10 -11 10 -2 0
-4 -4 -4 -10z"/>
<path d="M5595 8388 c4 -13 15 -29 26 -37 10 -7 19 -25 19 -38 0 -14 11 -38
25 -55 14 -16 25 -38 25 -49 0 -10 8 -27 18 -37 11 -11 22 -37 25 -59 4 -22
16 -48 27 -58 11 -10 20 -30 20 -45 0 -15 9 -35 20 -45 11 -10 20 -30 20 -45
0 -15 9 -35 20 -45 11 -10 23 -36 27 -58 3 -21 14 -46 23 -55 10 -10 21 -33
25 -52 4 -19 16 -41 26 -48 12 -8 19 -25 19 -46 0 -18 9 -45 20 -59 11 -14 23
-40 27 -59 3 -18 14 -41 24 -51 11 -10 19 -31 19 -47 0 -19 7 -33 19 -40 12
-6 22 -26 26 -50 4 -21 15 -50 26 -64 10 -13 19 -33 19 -43 0 -11 11 -34 25
-53 18 -24 25 -47 25 -78 0 -29 6 -49 15 -56 9 -6 19 -35 24 -64 4 -29 16 -61
25 -71 10 -11 21 -44 25 -75 4 -31 15 -64 23 -73 8 -10 18 -42 21 -72 4 -32
13 -58 22 -65 9 -6 19 -31 22 -54 l6 -43 46 7 c25 4 54 15 64 25 13 14 32 19
68 19 35 0 59 6 75 19 16 12 49 21 97 26 42 4 79 14 90 23 13 12 49 17 140 22
74 3 132 11 147 20 14 7 60 17 104 20 57 5 81 12 88 24 7 12 24 16 68 16 37 0
60 4 60 11 0 12 -40 48 -53 49 -5 0 -29 20 -54 45 -24 25 -49 45 -53 45 -10 0
-77 42 -100 63 -8 8 -23 17 -32 20 -10 4 -18 11 -18 17 0 5 -18 17 -39 26 -22
8 -42 22 -45 30 -3 8 -12 14 -20 14 -8 0 -21 8 -28 18 -7 10 -21 21 -30 25
-10 3 -18 13 -18 21 0 7 -11 16 -24 20 -38 9 -148 97 -296 236 -79 74 -104 95
-156 130 -20 14 -78 67 -128 118 -380 390 -406 417 -406 430 0 4 -38 47 -85
94 -47 48 -85 92 -85 97 0 6 -9 15 -19 20 -10 6 -24 24 -29 41 -6 17 -18 33
-27 36 -8 3 -15 11 -15 16 0 10 -57 68 -67 68 -2 0 -1 -10 2 -22z"/>
<path d="M10746 7761 c-4 -6 -3 -11 3 -11 14 0 51 -87 51 -120 0 -37 -34 -111
-62 -136 -30 -26 -93 -54 -121 -54 -13 0 -47 9 -77 19 -43 15 -59 26 -72 52
-20 40 -21 35 -18 -86 1 -70 4 -83 26 -103 13 -13 24 -27 24 -31 0 -5 9 -11
20 -14 11 -3 20 -12 20 -21 0 -9 8 -16 19 -16 10 0 30 -9 44 -20 21 -17 40
-20 124 -20 87 0 100 2 111 20 7 12 23 20 40 20 30 0 76 49 88 94 3 15 15 31
26 37 18 10 20 19 16 111 -2 82 -6 101 -20 109 -10 6 -18 16 -18 23 0 14 -105
116 -119 116 -6 0 -14 7 -19 15 -10 19 -77 32 -86 16z"/>
<path d="M8041 7506 c12 -10 60 -16 54 -6 -3 5 -18 10 -32 10 -15 0 -24 -2
-22 -4z"/>
<path d="M9770 5471 c-27 -14 -68 -20 -175 -26 -92 -4 -149 -12 -169 -22 -16
-8 -66 -17 -110 -20 -48 -3 -91 -12 -106 -21 -18 -11 -66 -18 -170 -23 -80 -4
-176 -13 -215 -19 -38 -7 -174 -17 -301 -24 l-231 -11 58 -55 c32 -30 59 -60
59 -65 0 -6 9 -16 19 -22 11 -7 22 -26 26 -43 4 -16 13 -30 21 -30 8 0 19 -11
23 -24 5 -13 16 -26 24 -29 8 -3 17 -20 21 -38 3 -18 15 -38 26 -46 11 -8 20
-22 20 -32 0 -10 11 -30 25 -45 16 -17 25 -39 25 -58 0 -17 8 -40 18 -51 11
-12 19 -42 22 -84 l5 -64 389 1 c371 1 390 2 414 20 13 11 31 20 38 20 7 0 20
13 28 28 8 16 33 45 55 65 23 20 41 40 41 43 0 10 159 164 169 164 5 0 13 9
16 20 3 11 11 20 16 20 10 0 119 106 119 115 0 3 15 19 33 35 148 139 187 185
187 218 0 47 -41 81 -98 82 -23 0 -59 9 -79 20 -52 28 -192 28 -243 1z"/>
<path d="M6686 5348 c4 -29 14 -61 22 -71 11 -12 19 -48 23 -98 5 -56 13 -86
25 -100 16 -18 19 -49 26 -227 4 -114 5 -259 2 -323 l-6 -116 26 -7 c32 -8
104 3 131 19 11 7 67 15 124 18 75 5 111 11 130 24 21 14 54 18 184 21 86 2
157 7 157 11 0 10 47 31 69 31 10 0 29 8 42 19 13 10 39 22 58 26 31 7 45 16
96 65 12 11 30 20 41 20 12 0 29 9 39 20 10 11 24 20 31 20 7 0 16 9 19 20 3
11 11 20 17 20 17 0 65 58 73 87 4 16 15 36 26 46 16 15 19 32 19 117 0 88 -2
102 -20 117 -11 10 -20 25 -20 34 0 28 -11 49 -26 49 -7 0 -17 15 -22 34 -6
18 -32 56 -59 84 l-49 50 -109 3 c-84 3 -116 8 -135 22 -22 16 -64 17 -483 17
l-458 0 7 -52z"/>
<path d="M9230 4219 c-30 -17 -55 -19 -193 -19 -105 0 -198 -6 -280 -19 -67
-10 -202 -22 -300 -25 -141 -5 -183 -10 -203 -23 -19 -12 -60 -18 -157 -22
-84 -5 -141 -12 -157 -21 -15 -8 -70 -17 -135 -20 -74 -4 -118 -12 -135 -22
-17 -11 -58 -17 -130 -20 -69 -3 -119 -11 -145 -22 -22 -10 -76 -20 -120 -23
-50 -4 -86 -11 -97 -21 -12 -10 -52 -17 -125 -22 -68 -4 -120 -13 -140 -24
-19 -9 -56 -16 -90 -16 -38 0 -71 -7 -93 -19 -19 -10 -68 -21 -109 -25 -41 -4
-90 -16 -110 -27 -22 -12 -56 -19 -91 -19 -33 -1 -71 -8 -95 -20 -22 -11 -59
-19 -83 -20 -41 0 -49 -5 -118 -74 -41 -41 -74 -80 -74 -87 0 -6 -8 -26 -19
-43 -10 -17 -21 -61 -25 -100 -4 -38 -16 -87 -26 -109 -11 -23 -20 -51 -20
-64 0 -12 -9 -27 -19 -33 -19 -10 -25 -19 -67 -97 -12 -22 -27 -34 -48 -39
-17 -3 -39 -13 -48 -21 -9 -8 -48 -21 -87 -28 -58 -12 -82 -11 -150 0 -50 9
-93 23 -113 37 -49 36 -138 127 -138 141 0 8 -9 22 -20 32 -18 16 -20 31 -20
154 0 124 2 138 20 154 11 9 20 25 20 35 0 10 11 33 25 52 14 19 25 38 25 42
0 11 275 286 313 313 16 11 38 30 49 43 12 12 27 22 34 22 7 0 19 6 26 13 7 7
22 18 33 25 17 10 12 11 -34 12 -37 0 -60 -5 -73 -17 -11 -10 -42 -18 -76 -21
-31 -2 -65 -11 -74 -20 -10 -8 -41 -17 -70 -20 -30 -3 -64 -13 -77 -23 -13
-11 -29 -19 -36 -19 -6 0 -27 -14 -46 -31 -35 -32 -94 -74 -136 -97 -13 -8
-27 -20 -30 -28 -3 -8 -10 -14 -15 -14 -6 0 -29 -20 -52 -45 -24 -25 -48 -45
-54 -45 -7 0 -12 -6 -12 -13 0 -7 -11 -23 -25 -35 -14 -12 -25 -29 -25 -37 0
-8 -9 -20 -20 -27 -11 -7 -20 -18 -20 -25 0 -7 -11 -24 -25 -39 -15 -16 -25
-39 -25 -55 0 -16 -9 -38 -19 -48 -11 -11 -23 -36 -27 -56 -6 -35 -28 -55 -59
-55 -9 0 -28 -9 -42 -20 -17 -13 -41 -20 -68 -20 -29 0 -47 -6 -60 -20 -10
-12 -31 -20 -49 -20 -17 0 -49 -12 -71 -25 -22 -14 -51 -25 -65 -25 -14 0 -33
-9 -43 -20 -10 -12 -29 -20 -48 -20 -17 0 -42 -8 -55 -19 -13 -10 -44 -22 -68
-25 -24 -4 -47 -13 -49 -21 -3 -7 -21 -16 -39 -20 -18 -4 -44 -16 -57 -26 -13
-11 -36 -19 -51 -19 -15 0 -35 -9 -45 -20 -10 -11 -30 -20 -45 -20 -15 0 -37
-9 -50 -20 -13 -11 -31 -20 -40 -20 -10 0 -29 -9 -43 -20 -14 -11 -40 -23 -59
-27 -18 -3 -44 -14 -57 -25 -13 -10 -34 -18 -46 -18 -12 0 -33 -8 -46 -19 -13
-10 -40 -22 -59 -26 -19 -4 -43 -16 -53 -26 -10 -11 -25 -19 -33 -19 -9 0 -27
-9 -41 -20 -14 -11 -38 -20 -54 -20 -15 0 -35 -7 -43 -16 -9 -9 -32 -20 -52
-25 -19 -6 -44 -19 -55 -30 -10 -10 -30 -19 -44 -19 -13 0 -28 -6 -32 -13 -4
-8 -17 -19 -28 -25 -11 -6 -14 -12 -8 -12 7 0 53 -39 102 -87 50 -49 122 -117
161 -153 39 -36 90 -84 113 -107 23 -24 48 -43 54 -43 7 0 18 -9 25 -20 7 -11
20 -20 29 -20 9 0 38 -20 63 -45 26 -25 51 -45 56 -45 5 0 14 -9 20 -20 6 -11
20 -20 30 -20 11 0 29 -9 40 -20 11 -11 24 -20 28 -20 4 0 28 -18 52 -41 25
-22 60 -47 78 -54 17 -8 32 -19 32 -24 0 -6 6 -11 14 -11 7 0 35 -20 60 -45
26 -25 53 -45 60 -45 7 0 25 -9 39 -20 14 -11 30 -20 36 -20 5 0 16 -9 23 -19
8 -11 27 -23 43 -27 17 -4 38 -15 48 -25 10 -11 23 -19 28 -19 6 0 22 -9 36
-20 14 -11 34 -20 44 -20 10 0 24 -8 31 -18 7 -10 27 -22 43 -26 17 -4 38 -16
48 -27 10 -10 26 -19 36 -19 10 0 29 -8 42 -19 13 -10 39 -22 57 -26 18 -4 36
-13 38 -20 3 -7 18 -15 33 -18 16 -3 35 -12 43 -20 8 -8 25 -18 38 -22 14 -4
32 -13 40 -21 8 -7 35 -17 58 -23 24 -5 51 -16 60 -24 9 -8 33 -17 54 -21 20
-4 38 -13 41 -20 3 -8 24 -17 46 -21 23 -4 45 -13 49 -21 5 -8 26 -17 48 -21
21 -3 51 -14 66 -24 14 -11 43 -19 65 -19 21 0 52 -8 68 -18 17 -10 50 -21 73
-25 24 -3 52 -13 62 -22 10 -9 38 -19 62 -22 24 -3 51 -14 61 -24 13 -14 32
-19 68 -19 30 0 65 -8 89 -20 22 -11 59 -20 83 -20 29 0 53 -7 70 -20 18 -14
47 -22 104 -26 43 -4 91 -13 106 -21 16 -8 73 -18 126 -22 65 -5 106 -13 122
-24 16 -12 44 -17 92 -17 37 0 103 -8 145 -17 68 -16 140 -18 647 -18 460 0
575 3 594 13 16 10 83 16 206 21 145 5 186 10 198 22 10 11 44 18 101 22 46 4
97 12 113 18 15 6 59 15 97 20 38 5 77 16 87 25 10 9 44 19 76 24 32 4 72 14
88 23 18 10 53 17 90 17 43 0 69 6 90 20 17 11 44 20 61 20 17 0 43 9 57 20
14 11 47 23 74 26 27 4 56 15 66 25 11 12 32 19 56 19 22 0 48 8 62 18 13 11
41 22 62 25 20 3 44 12 51 20 8 8 34 17 57 21 23 4 53 16 67 26 13 11 32 20
42 20 10 0 29 9 43 20 14 11 34 20 45 20 10 0 30 9 44 19 13 11 38 23 54 27
16 4 40 15 53 26 13 10 34 18 46 18 12 0 30 9 40 20 10 11 26 20 35 20 10 0
29 9 43 20 14 11 29 20 35 20 5 0 20 8 33 19 13 10 35 22 47 26 13 4 33 16 43
26 10 10 30 19 44 19 14 0 29 8 35 20 6 11 17 20 24 20 7 0 21 8 30 19 9 10
31 22 48 25 17 3 37 15 45 26 8 11 22 20 32 20 17 0 44 17 86 55 26 23 66 48
113 70 17 8 32 20 32 25 0 6 7 13 16 17 9 3 28 17 42 30 50 46 57 50 82 58 25
7 38 17 84 62 13 13 27 23 32 23 5 0 25 17 44 38 40 41 110 92 128 92 6 0 16
9 22 19 5 11 19 23 30 26 11 3 20 12 20 20 0 8 9 16 19 20 11 3 23 15 26 26 4
10 11 19 16 19 10 0 27 15 143 128 25 23 49 42 55 42 6 0 11 5 11 11 0 12 69
79 81 79 4 0 11 9 14 20 3 11 12 20 20 20 8 0 17 9 20 20 3 11 11 20 16 20 14
0 116 105 123 127 4 11 15 28 26 38 11 10 20 24 20 31 0 7 9 15 19 19 11 3 23
15 26 26 4 10 11 19 17 19 20 0 101 99 118 145 5 14 16 25 24 25 8 0 17 9 21
19 3 11 15 23 26 26 10 4 19 13 19 20 0 8 9 19 20 25 11 6 20 20 20 31 0 11
11 30 25 43 14 13 25 28 25 33 0 5 9 18 20 28 11 10 22 27 26 39 4 11 24 37
44 58 21 20 41 50 45 68 4 17 13 34 20 36 16 6 75 97 75 116 0 8 9 24 20 36
11 12 20 27 20 35 0 7 11 23 25 35 14 12 25 33 25 47 0 14 9 30 20 37 11 7 20
23 20 36 0 13 11 33 25 46 14 13 25 33 25 44 0 12 10 30 22 42 l22 20 -101 0
c-69 0 -114 5 -144 17 -30 11 -91 18 -190 22 -115 5 -151 10 -173 24 -21 14
-56 19 -164 23 -75 3 -171 12 -212 21 -54 11 -168 17 -400 22 -280 6 -329 9
-357 24 -30 16 -94 17 -835 16 -776 0 -804 -1 -838 -20z"/>
</g>
</svg>
