<?xml version="1.0" encoding="UTF-8" standalone="no"?>
<!DOCTYPE svg PUBLIC "-//W3C//DTD SVG 1.1//EN" "http://www.w3.org/Graphics/SVG/1.1/DTD/svg11.dtd">
<svg xmlns="http://www.w3.org/2000/svg" version="1.1" viewBox="0.00 0.00 150.00 150.00">
<g stroke-width="2.00" fill="none" stroke-linecap="butt">
<path stroke="#808080" vector-effect="non-scaling-stroke" d="
  M 15.46 57.26
  C 33.29 -1.14 115.39 -1.73 133.38 57.09
  A 0.51 0.51 0.0 0 0 134.16 57.36
  Q 134.56 57.08 134.36 56.48
  C 126.42 32.96 107.65 15.86 82.95 12.60
  C 52.65 8.59 23.30 26.96 14.57 56.77
  Q 14.50 57.02 14.56 57.19
  Q 14.64 57.40 14.80 57.50
  A 0.44 0.44 0.0 0 0 15.46 57.26"
/>
<path stroke="#808080" vector-effect="non-scaling-stroke" d="
  M 51.58 43.06
  Q 53.78 36.24 60.97 36.26
  C 65.52 36.28 66.19 40.15 68.33 43.00
  A 0.39 0.39 0.0 0 0 69.03 42.74
  L 68.71 37.94
  Q 68.68 37.37 68.15 37.11
  C 54.49 30.46 39.16 40.83 43.28 56.49
  C 46.33 68.09 59.07 70.99 68.75 66.10
  Q 69.26 65.84 69.25 65.27
  L 69.24 59.78
  A 0.41 0.41 0.0 0 0 68.44 59.65
  C 67.41 62.51 66.55 66.10 62.99 66.89
  C 49.14 69.95 49.06 50.90 51.58 43.06"
/>
<path stroke="#ffe5b3" vector-effect="non-scaling-stroke" d="
  M 72.85 69.00
  Q 66.75 68.03 62.89 70.45"
/>
<path stroke="#808080" vector-effect="non-scaling-stroke" d="
  M 62.89 70.45
  L 58.05 70.38"
/>
<path stroke="#ffe5b3" vector-effect="non-scaling-stroke" d="
  M 58.05 70.38
  C 55.85 69.71 53.72 68.74 51.41 68.76
  Q 36.31 68.89 21.29 68.86
  A 0.79 0.78 -86.4 0 0 20.50 69.56
  C 20.23 71.94 20.03 74.03 20.33 76.47
  Q 22.97 97.54 39.30 110.93
  C 67.25 133.84 109.07 124.81 124.54 91.32
  C 125.31 89.65 125.73 87.61 126.58 85.74
  Q 127.58 83.55 127.76 81.56
  Q 128.23 76.25 129.48 70.96"
/>
<path stroke="#808080" vector-effect="non-scaling-stroke" d="
  M 129.48 70.96
  L 137.25 70.13
  Q 137.88 70.06 137.81 69.43
  L 137.44 65.96
  Q 137.37 65.28 136.70 65.44
  L 135.86 65.65
  A 0.54 0.54 0.0 0 0 135.55 66.49
  Q 136.13 67.28 135.89 68.03
  A 0.96 0.96 0.0 0 1 134.02 67.80
  L 133.97 66.98
  A 0.85 0.85 0.0 0 0 132.28 66.92
  Q 132.20 67.51 132.25 68.34
  Q 132.29 68.92 131.72 68.95
  L 131.27 68.97
  Q 130.53 69.01 130.52 68.27
  L 130.49 67.44
  A 1.01 1.00 -83.5 0 0 129.74 66.49
  Q 127.99 66.02 128.89 68.97"
/>
<path stroke="#ffe5b3" vector-effect="non-scaling-stroke" d="
  M 128.89 68.97
  L 110.19 69.02"
/>
<path stroke="#808080" vector-effect="non-scaling-stroke" d="
  M 110.19 69.02
  L 113.35 58.06
  A 1.11 1.10 85.8 0 1 113.94 57.37
  L 115.93 56.45
  A 0.39 0.39 0.0 0 0 115.77 55.71
  L 109.24 55.69
  A 0.24 0.24 0.0 0 0 109.11 56.14
  Q 111.72 57.74 111.30 59.27
  Q 109.98 64.07 108.52 69.07"
/>
<path stroke="#ffe5b3" vector-effect="non-scaling-stroke" d="
  M 108.52 69.07
  Q 104.33 68.40 100.45 69.23"
/>
<path stroke="#808080" vector-effect="non-scaling-stroke" d="
  M 100.45 69.23
  L 97.30 58.48
  A 0.99 0.98 -19.4 0 1 97.88 57.29
  L 99.94 56.45
  A 0.39 0.39 0.0 0 0 99.80 55.70
  L 87.02 55.70
  Q 86.37 55.70 86.87 56.11
  Q 90.13 58.71 90.56 62.60
  C 90.82 64.90 89.56 67.18 88.82 69.43"
/>
<path stroke="#ffe5b3" vector-effect="non-scaling-stroke" d="
  M 88.82 69.43
  L 80.90 68.65"
/>
<path stroke="#808080" vector-effect="non-scaling-stroke" d="
  M 80.90 68.65
  L 78.32 58.42
  A 0.79 0.79 0.0 0 1 78.75 57.51
  L 81.08 56.41
  A 0.39 0.38 32.1 0 0 80.91 55.68
  L 67.26 55.71
  A 0.33 0.33 0.0 0 0 67.17 56.35
  Q 69.44 57.01 70.12 59.44
  Q 71.38 63.89 72.85 69.00"
/>
<path stroke="#806634" vector-effect="non-scaling-stroke" d="
  M 80.90 68.65
  L 84.25 81.43
  Q 84.47 82.30 84.76 81.45
  L 88.82 69.43"
/>
<path stroke="#806634" vector-effect="non-scaling-stroke" d="
  M 100.45 69.23
  L 104.25 82.07
  A 0.28 0.28 0.0 0 0 104.79 82.07
  L 108.52 69.07"
/>
<path stroke="#806634" vector-effect="non-scaling-stroke" d="
  M 110.19 69.02
  L 104.04 90.41
  A 2.36 2.36 0.0 0 1 99.52 90.47
  L 91.98 66.76
  A 0.24 0.24 0.0 0 0 91.53 66.76
  L 83.79 90.51
  A 2.37 2.37 0.0 0 1 79.26 90.45
  L 72.85 69.00"
/>
<path stroke="#806634" vector-effect="non-scaling-stroke" d="
  M 58.05 70.38
  Q 43.08 72.58 42.74 87.22
  C 42.40 101.69 57.13 106.99 68.71 101.41
  A 0.83 0.81 -12.5 0 0 69.18 100.69
  L 69.29 95.01
  A 0.35 0.35 0.0 0 0 68.63 94.85
  C 67.23 97.66 66.79 101.51 63.25 102.26
  C 50.09 105.06 49.14 89.25 51.06 80.67
  C 52.40 74.71 55.25 71.00 61.73 71.63
  C 65.43 71.99 66.81 75.96 68.25 78.26
  A 0.42 0.42 0.0 0 0 69.02 78.01
  L 68.69 73.24
  A 0.90 0.89 -81.9 0 0 68.11 72.46
  L 62.89 70.45"
/>
<path stroke="#806634" vector-effect="non-scaling-stroke" d="
  M 129.48 70.96
  L 128.89 68.97"
/>
<path stroke="#808080" vector-effect="non-scaling-stroke" d="
  M 19.32 71.95
  C 21.31 64.83 10.63 63.22 10.51 70.74
  Q 10.50 71.39 10.78 71.69
  Q 11.19 72.13 11.99 71.94
  A 0.61 0.60 -11.3 0 0 12.45 71.26
  C 11.64 66.23 19.13 66.78 17.45 71.58
  Q 17.22 72.23 17.90 72.35
  L 18.51 72.46
  Q 19.14 72.57 19.32 71.95"
/>
<path stroke="#808080" vector-effect="non-scaling-stroke" d="
  M 129.35 81.42
  L 137.32 81.81
  A 0.52 0.52 0.0 0 0 137.87 81.32
  L 137.97 79.21
  A 4.51 4.28 -87.2 0 0 133.91 74.50
  L 133.45 74.47
  A 4.51 4.28 -87.2 0 0 128.96 78.77
  L 128.86 80.88
  A 0.52 0.52 0.0 0 0 129.35 81.42"
/>
<path stroke="#808080" vector-effect="non-scaling-stroke" d="
  M 14.03 78.39
  L 14.05 79.69
  A 0.67 0.67 0.0 0 0 14.85 80.35
  Q 16.29 80.06 15.75 78.51
  A 0.53 0.53 0.0 0 1 16.15 77.81
  L 16.96 77.64
  A 0.62 0.61 84.6 0 1 17.69 78.25
  L 17.68 79.76
  Q 17.67 80.18 18.07 80.33
  Q 18.71 80.59 19.12 80.24
  Q 19.48 79.93 19.49 79.18
  Q 19.49 77.73 19.14 76.26
  Q 19.01 75.71 18.45 75.75
  L 10.91 76.23
  Q 10.34 76.27 10.36 76.84
  L 10.52 80.26
  A 0.87 0.87 0.0 0 0 12.26 80.21
  L 12.25 78.37
  A 0.59 0.58 2.2 0 1 12.89 77.78
  L 13.52 77.84
  Q 14.03 77.88 14.03 78.39"
/>
<path stroke="#808080" vector-effect="non-scaling-stroke" d="
  M 15.84 86.81
  L 12.38 91.46
  A 0.38 0.37 -77.9 0 0 12.76 92.05
  L 20.75 90.33
  A 0.64 0.64 0.0 0 0 21.25 89.63
  L 21.18 88.98
  A 0.66 0.66 0.0 0 0 20.35 88.41
  L 16.73 89.40
  Q 15.84 89.64 16.40 88.91
  L 19.79 84.49
  A 0.53 0.53 0.0 0 0 19.26 83.65
  Q 15.72 84.43 11.73 85.18
  Q 10.62 85.39 11.48 86.77
  Q 11.75 87.19 12.24 87.08
  L 15.50 86.30
  Q 16.37 86.09 15.84 86.81"
/>
<path stroke="#808080" vector-effect="non-scaling-stroke" d="
  M 134.32 88.55
  L 128.41 87.24
  Q 127.91 87.13 127.76 87.62
  L 127.52 88.39
  Q 127.36 88.92 127.90 89.03
  L 135.56 90.65
  Q 136.14 90.78 136.29 90.20
  Q 136.68 88.71 136.99 87.11
  A 0.94 0.92 82.4 0 0 135.19 86.74
  L 134.91 88.16
  Q 134.81 88.66 134.32 88.55"
/>
<path stroke="#808080" vector-effect="non-scaling-stroke" d="
  M 134.4832 96.0406
  A 0.62 0.62 0.0 0 0 134.1085 95.2479
  L 126.7650 92.6186
  A 0.62 0.62 0.0 0 0 125.9723 92.9933
  L 125.7768 93.5394
  A 0.62 0.62 0.0 0 0 126.1515 94.3321
  L 133.4950 96.9614
  A 0.62 0.62 0.0 0 0 134.2877 96.5867
  L 134.4832 96.0406"
/>
<path stroke="#808080" vector-effect="non-scaling-stroke" d="
  M 22.29 97.82
  Q 22.39 99.25 23.86 99.07
  A 0.64 0.64 0.0 0 0 24.38 98.20
  L 22.37 93.18
  A 0.90 0.90 0.0 0 0 20.67 93.75
  L 21.04 95.09
  Q 21.19 95.64 20.66 95.85
  L 15.31 97.89
  Q 14.70 98.12 14.87 98.75
  L 15.02 99.29
  Q 15.20 99.97 15.85 99.70
  L 21.50 97.34
  Q 22.23 97.03 22.29 97.82"
/>
<path stroke="#808080" vector-effect="non-scaling-stroke" d="
  M 126.27 102.21
  L 123.42 101.61
  A 0.54 0.54 0.0 0 0 122.92 102.52
  L 124.88 104.59
  A 0.41 0.41 0.0 0 1 124.52 105.28
  L 120.77 104.73
  Q 120.17 104.65 120.05 105.24
  L 119.92 105.93
  Q 119.80 106.57 120.44 106.65
  L 128.64 107.66
  A 0.55 0.54 -17.9 0 0 129.11 106.75
  L 127.37 104.90
  Q 126.53 104.01 127.74 104.19
  L 130.53 104.59
  A 0.44 0.44 0.0 0 0 130.92 103.87
  Q 128.19 100.73 125.58 97.41
  Q 125.30 97.07 125.20 97.08
  A 1.31 1.13 65.1 0 0 124.60 99.16
  L 126.65 101.59
  Q 127.37 102.44 126.27 102.21"
/>
<path stroke="#808080" vector-effect="non-scaling-stroke" d="
  M 22.42 106.43
  Q 21.74 107.72 20.98 108.96
  Q 20.41 109.89 20.98 110.48
  A 0.75 0.75 0.0 0 0 22.20 110.29
  L 23.09 108.43
  Q 23.38 107.83 24.02 108.01
  Q 27.05 108.88 28.13 105.85
  Q 28.33 105.29 28.03 104.78
  L 26.20 101.67
  Q 25.87 101.12 25.32 101.45
  L 18.62 105.48
  A 0.63 0.63 0.0 0 0 18.44 106.39
  L 18.82 106.89
  A 0.66 0.66 0.0 0 0 19.73 107.04
  L 21.64 105.73
  A 0.54 0.54 0.0 0 1 22.42 106.43"
/>
<path stroke="#808080" vector-effect="non-scaling-stroke" d="
  M 34.97 114.95
  A 4.65 4.65 0.0 0 0 30.32 110.30
  A 4.65 4.65 0.0 0 0 25.67 114.95
  A 4.65 4.65 0.0 0 0 30.32 119.60
  A 4.65 4.65 0.0 0 0 34.97 114.95"
/>
<path stroke="#808080" vector-effect="non-scaling-stroke" d="
  M 117.56 118.81
  Q 115.47 117.09 113.77 114.99
  Q 112.94 113.95 112.05 114.52
  A 0.84 0.84 0.0 0 0 111.91 115.83
  L 117.38 121.29
  Q 117.80 121.72 118.23 121.30
  L 120.77 118.79
  A 0.62 0.61 39.3 0 0 120.67 117.84
  L 120.18 117.52
  Q 119.61 117.15 119.20 117.70
  L 118.47 118.69
  Q 118.07 119.23 117.56 118.81"
/>
<path stroke="#808080" vector-effect="non-scaling-stroke" d="
  M 110.86 125.80
  L 114.01 125.28
  A 0.56 0.56 0.0 0 0 114.22 124.25
  L 106.78 119.55
  A 0.40 0.40 0.0 0 0 106.18 119.98
  L 108.27 128.43
  A 0.57 0.57 0.0 0 0 109.20 128.71
  Q 110.13 127.88 110.19 126.56
  A 0.79 0.79 0.0 0 1 110.86 125.80"
/>
<path stroke="#808080" vector-effect="non-scaling-stroke" d="
  M 42.17 127.84
  C 41.15 124.83 44.02 122.38 46.69 124.69
  A 0.75 0.74 47.8 0 0 47.60 124.74
  Q 47.99 124.48 48.02 124.01
  Q 48.05 123.54 47.55 123.10
  C 42.71 118.82 36.72 126.44 42.29 130.47
  Q 43.47 131.33 44.58 130.39
  A 0.62 0.62 0.0 0 0 44.48 129.37
  L 42.57 128.31
  A 0.85 0.80 6.4 0 1 42.17 127.84"
/>
<path stroke="#808080" vector-effect="non-scaling-stroke" d="
  M 100.9033 123.7445
  A 0.87 0.87 0.0 0 0 99.7242 123.3930
  L 99.6715 123.4215
  A 0.87 0.87 0.0 0 0 99.3200 124.6006
  L 102.8967 131.2155
  A 0.87 0.87 0.0 0 0 104.0758 131.5670
  L 104.1285 131.5385
  A 0.87 0.87 0.0 0 0 104.4800 130.3594
  L 100.9033 123.7445"
/>
<path stroke="#808080" vector-effect="non-scaling-stroke" d="
  M 97.96 132.21
  C 93.45 135.03 90.95 128.04 96.10 127.44
  Q 96.58 127.39 96.49 126.91
  L 96.38 126.29
  Q 96.24 125.58 95.52 125.69
  C 88.07 126.89 91.67 137.82 98.65 133.93
  Q 99.61 133.39 98.70 132.32
  A 0.57 0.57 0.0 0 0 97.96 132.21"
/>
<path stroke="#808080" vector-effect="non-scaling-stroke" d="
  M 58.13 130.63
  A 4.64 4.64 0.0 0 0 53.49 125.99
  A 4.64 4.64 0.0 0 0 48.85 130.63
  A 4.64 4.64 0.0 0 0 53.49 135.27
  A 4.64 4.64 0.0 0 0 58.13 130.63"
/>
<path stroke="#808080" vector-effect="non-scaling-stroke" d="
  M 67.22 134.13
  A 0.40 0.40 0.0 0 1 67.87 134.51
  L 67.22 138.27
  A 0.40 0.40 0.0 0 0 67.61 138.74
  L 68.71 138.75
  A 0.40 0.40 0.0 0 0 69.11 138.41
  L 70.32 130.18
  A 0.40 0.40 0.0 0 0 69.66 129.81
  L 66.07 132.85
  A 0.40 0.40 0.0 0 1 65.48 132.76
  L 62.86 128.81
  A 0.40 0.40 0.0 0 0 62.13 128.98
  L 60.97 137.27
  A 0.40 0.40 0.0 0 0 61.36 137.72
  L 62.48 137.76
  A 0.40 0.40 0.0 0 0 62.89 137.40
  L 63.28 133.68
  A 0.40 0.40 0.0 0 1 64.02 133.52
  L 65.09 135.30
  A 0.40 0.40 0.0 0 0 65.69 135.40
  L 67.22 134.13"
/>
<path stroke="#808080" vector-effect="non-scaling-stroke" d="
  M 85.36 134.52
  L 87.46 137.24
  Q 87.73 137.59 88.15 137.47
  L 89.04 137.23
  A 0.52 0.52 0.0 0 0 89.26 136.36
  L 87.34 134.51
  Q 86.98 134.16 87.25 133.74
  C 88.30 132.08 88.92 130.55 87.02 129.25
  C 85.73 128.37 83.62 129.10 82.10 129.39
  A 0.49 0.49 0.0 0 0 81.71 129.96
  L 83.12 137.70
  A 0.61 0.60 -6.0 0 0 83.74 138.20
  L 84.43 138.18
  A 0.62 0.62 0.0 0 0 85.01 137.41
  L 84.40 134.99
  A 0.55 0.55 0.0 0 1 85.36 134.52"
/>
<path stroke="#808080" vector-effect="non-scaling-stroke" d="
  M 75.70 132.99
  L 75.68 132.04
  Q 75.67 131.41 76.28 131.55
  Q 77.08 131.72 77.60 131.67
  A 0.94 0.94 0.0 0 0 77.52 129.80
  L 74.38 129.79
  A 0.59 0.59 0.0 0 0 73.79 130.40
  L 74.05 138.06
  Q 74.07 138.56 74.56 138.66
  Q 76.58 139.09 78.26 138.64
  A 0.84 0.84 0.0 0 0 78.02 136.98
  L 76.51 137.03
  Q 75.71 137.05 75.74 136.26
  L 75.76 135.77
  A 0.59 0.59 0.0 0 1 76.40 135.21
  Q 77.15 135.27 77.68 135.16
  A 0.88 0.87 -52.3 0 0 77.46 133.43
  L 76.24 133.50
  Q 75.71 133.53 75.70 132.99"
/>
<path stroke="#808080" vector-effect="non-scaling-stroke" d="
  M 131.42 79.71
  L 135.53 79.85
  A 0.61 0.61 0.0 0 0 136.16 79.26
  L 136.17 79.05
  A 2.53 2.50 1.9 0 0 133.72 76.47
  L 133.45 76.46
  A 2.53 2.50 1.9 0 0 130.83 78.87
  L 130.83 79.08
  A 0.61 0.61 0.0 0 0 131.42 79.71"
/>
<path stroke="#808080" vector-effect="non-scaling-stroke" d="
  M 25.6370 106.2533
  A 1.31 1.12 59.9 0 0 25.9490 104.5583
  A 1.31 1.12 59.9 0 0 24.3230 103.9867
  A 1.31 1.12 59.9 0 0 24.0110 105.6817
  A 1.31 1.12 59.9 0 0 25.6370 106.2533"
/>
<path stroke="#808080" vector-effect="non-scaling-stroke" d="
  M 33.03 114.95
  A 2.72 2.72 0.0 0 0 30.31 112.23
  A 2.72 2.72 0.0 0 0 27.59 114.95
  A 2.72 2.72 0.0 0 0 30.31 117.67
  A 2.72 2.72 0.0 0 0 33.03 114.95"
/>
<path stroke="#808080" vector-effect="non-scaling-stroke" d="
  M 109.28 124.77
  A 0.42 0.41 -18.9 0 0 109.78 125.01
  Q 110.31 124.87 110.35 124.35
  Q 110.39 124.00 110.11 123.72
  Q 109.72 123.33 109.14 123.16
  Q 108.53 122.99 108.78 123.57
  L 109.28 124.77"
/>
<path stroke="#808080" vector-effect="non-scaling-stroke" d="
  M 56.25 130.62
  A 2.74 2.74 0.0 0 0 53.51 127.88
  A 2.74 2.74 0.0 0 0 50.77 130.62
  A 2.74 2.74 0.0 0 0 53.51 133.36
  A 2.74 2.74 0.0 0 0 56.25 130.62"
/>
<path stroke="#808080" vector-effect="non-scaling-stroke" d="
  M 86.3742 131.4294
  A 1.33 1.10 -11.3 0 0 84.8545 130.6113
  A 1.33 1.10 -11.3 0 0 83.7658 131.9506
  A 1.33 1.10 -11.3 0 0 85.2855 132.7687
  A 1.33 1.10 -11.3 0 0 86.3742 131.4294"
/>
</g>
<path fill="#ffffff" d="
  M 0.00 0.00
  L 150.00 0.00
  L 150.00 150.00
  L 0.00 150.00
  L 0.00 0.00
  Z
  M 15.46 57.26
  C 33.29 -1.14 115.39 -1.73 133.38 57.09
  A 0.51 0.51 0.0 0 0 134.16 57.36
  Q 134.56 57.08 134.36 56.48
  C 126.42 32.96 107.65 15.86 82.95 12.60
  C 52.65 8.59 23.30 26.96 14.57 56.77
  Q 14.50 57.02 14.56 57.19
  Q 14.64 57.40 14.80 57.50
  A 0.44 0.44 0.0 0 0 15.46 57.26
  Z
  M 51.58 43.06
  Q 53.78 36.24 60.97 36.26
  C 65.52 36.28 66.19 40.15 68.33 43.00
  A 0.39 0.39 0.0 0 0 69.03 42.74
  L 68.71 37.94
  Q 68.68 37.37 68.15 37.11
  C 54.49 30.46 39.16 40.83 43.28 56.49
  C 46.33 68.09 59.07 70.99 68.75 66.10
  Q 69.26 65.84 69.25 65.27
  L 69.24 59.78
  A 0.41 0.41 0.0 0 0 68.44 59.65
  C 67.41 62.51 66.55 66.10 62.99 66.89
  C 49.14 69.95 49.06 50.90 51.58 43.06
  Z
  M 72.85 69.00
  Q 66.75 68.03 62.89 70.45
  L 58.05 70.38
  C 55.85 69.71 53.72 68.74 51.41 68.76
  Q 36.31 68.89 21.29 68.86
  A 0.79 0.78 -86.4 0 0 20.50 69.56
  C 20.23 71.94 20.03 74.03 20.33 76.47
  Q 22.97 97.54 39.30 110.93
  C 67.25 133.84 109.07 124.81 124.54 91.32
  C 125.31 89.65 125.73 87.61 126.58 85.74
  Q 127.58 83.55 127.76 81.56
  Q 128.23 76.25 129.48 70.96
  L 137.25 70.13
  Q 137.88 70.06 137.81 69.43
  L 137.44 65.96
  Q 137.37 65.28 136.70 65.44
  L 135.86 65.65
  A 0.54 0.54 0.0 0 0 135.55 66.49
  Q 136.13 67.28 135.89 68.03
  A 0.96 0.96 0.0 0 1 134.02 67.80
  L 133.97 66.98
  A 0.85 0.85 0.0 0 0 132.28 66.92
  Q 132.20 67.51 132.25 68.34
  Q 132.29 68.92 131.72 68.95
  L 131.27 68.97
  Q 130.53 69.01 130.52 68.27
  L 130.49 67.44
  A 1.01 1.00 -83.5 0 0 129.74 66.49
  Q 127.99 66.02 128.89 68.97
  L 110.19 69.02
  L 113.35 58.06
  A 1.11 1.10 85.8 0 1 113.94 57.37
  L 115.93 56.45
  A 0.39 0.39 0.0 0 0 115.77 55.71
  L 109.24 55.69
  A 0.24 0.24 0.0 0 0 109.11 56.14
  Q 111.72 57.74 111.30 59.27
  Q 109.98 64.07 108.52 69.07
  Q 104.33 68.40 100.45 69.23
  L 97.30 58.48
  A 0.99 0.98 -19.4 0 1 97.88 57.29
  L 99.94 56.45
  A 0.39 0.39 0.0 0 0 99.80 55.70
  L 87.02 55.70
  Q 86.37 55.70 86.87 56.11
  Q 90.13 58.71 90.56 62.60
  C 90.82 64.90 89.56 67.18 88.82 69.43
  L 80.90 68.65
  L 78.32 58.42
  A 0.79 0.79 0.0 0 1 78.75 57.51
  L 81.08 56.41
  A 0.39 0.38 32.1 0 0 80.91 55.68
  L 67.26 55.71
  A 0.33 0.33 0.0 0 0 67.17 56.35
  Q 69.44 57.01 70.12 59.44
  Q 71.38 63.89 72.85 69.00
  Z
  M 19.32 71.95
  C 21.31 64.83 10.63 63.22 10.51 70.74
  Q 10.50 71.39 10.78 71.69
  Q 11.19 72.13 11.99 71.94
  A 0.61 0.60 -11.3 0 0 12.45 71.26
  C 11.64 66.23 19.13 66.78 17.45 71.58
  Q 17.22 72.23 17.90 72.35
  L 18.51 72.46
  Q 19.14 72.57 19.32 71.95
  Z
  M 129.35 81.42
  L 137.32 81.81
  A 0.52 0.52 0.0 0 0 137.87 81.32
  L 137.97 79.21
  A 4.51 4.28 -87.2 0 0 133.91 74.50
  L 133.45 74.47
  A 4.51 4.28 -87.2 0 0 128.96 78.77
  L 128.86 80.88
  A 0.52 0.52 0.0 0 0 129.35 81.42
  Z
  M 14.03 78.39
  L 14.05 79.69
  A 0.67 0.67 0.0 0 0 14.85 80.35
  Q 16.29 80.06 15.75 78.51
  A 0.53 0.53 0.0 0 1 16.15 77.81
  L 16.96 77.64
  A 0.62 0.61 84.6 0 1 17.69 78.25
  L 17.68 79.76
  Q 17.67 80.18 18.07 80.33
  Q 18.71 80.59 19.12 80.24
  Q 19.48 79.93 19.49 79.18
  Q 19.49 77.73 19.14 76.26
  Q 19.01 75.71 18.45 75.75
  L 10.91 76.23
  Q 10.34 76.27 10.36 76.84
  L 10.52 80.26
  A 0.87 0.87 0.0 0 0 12.26 80.21
  L 12.25 78.37
  A 0.59 0.58 2.2 0 1 12.89 77.78
  L 13.52 77.84
  Q 14.03 77.88 14.03 78.39
  Z
  M 15.84 86.81
  L 12.38 91.46
  A 0.38 0.37 -77.9 0 0 12.76 92.05
  L 20.75 90.33
  A 0.64 0.64 0.0 0 0 21.25 89.63
  L 21.18 88.98
  A 0.66 0.66 0.0 0 0 20.35 88.41
  L 16.73 89.40
  Q 15.84 89.64 16.40 88.91
  L 19.79 84.49
  A 0.53 0.53 0.0 0 0 19.26 83.65
  Q 15.72 84.43 11.73 85.18
  Q 10.62 85.39 11.48 86.77
  Q 11.75 87.19 12.24 87.08
  L 15.50 86.30
  Q 16.37 86.09 15.84 86.81
  Z
  M 134.32 88.55
  L 128.41 87.24
  Q 127.91 87.13 127.76 87.62
  L 127.52 88.39
  Q 127.36 88.92 127.90 89.03
  L 135.56 90.65
  Q 136.14 90.78 136.29 90.20
  Q 136.68 88.71 136.99 87.11
  A 0.94 0.92 82.4 0 0 135.19 86.74
  L 134.91 88.16
  Q 134.81 88.66 134.32 88.55
  Z
  M 134.4832 96.0406
  A 0.62 0.62 0.0 0 0 134.1085 95.2479
  L 126.7650 92.6186
  A 0.62 0.62 0.0 0 0 125.9723 92.9933
  L 125.7768 93.5394
  A 0.62 0.62 0.0 0 0 126.1515 94.3321
  L 133.4950 96.9614
  A 0.62 0.62 0.0 0 0 134.2877 96.5867
  L 134.4832 96.0406
  Z
  M 22.29 97.82
  Q 22.39 99.25 23.86 99.07
  A 0.64 0.64 0.0 0 0 24.38 98.20
  L 22.37 93.18
  A 0.90 0.90 0.0 0 0 20.67 93.75
  L 21.04 95.09
  Q 21.19 95.64 20.66 95.85
  L 15.31 97.89
  Q 14.70 98.12 14.87 98.75
  L 15.02 99.29
  Q 15.20 99.97 15.85 99.70
  L 21.50 97.34
  Q 22.23 97.03 22.29 97.82
  Z
  M 126.27 102.21
  L 123.42 101.61
  A 0.54 0.54 0.0 0 0 122.92 102.52
  L 124.88 104.59
  A 0.41 0.41 0.0 0 1 124.52 105.28
  L 120.77 104.73
  Q 120.17 104.65 120.05 105.24
  L 119.92 105.93
  Q 119.80 106.57 120.44 106.65
  L 128.64 107.66
  A 0.55 0.54 -17.9 0 0 129.11 106.75
  L 127.37 104.90
  Q 126.53 104.01 127.74 104.19
  L 130.53 104.59
  A 0.44 0.44 0.0 0 0 130.92 103.87
  Q 128.19 100.73 125.58 97.41
  Q 125.30 97.07 125.20 97.08
  A 1.31 1.13 65.1 0 0 124.60 99.16
  L 126.65 101.59
  Q 127.37 102.44 126.27 102.21
  Z
  M 22.42 106.43
  Q 21.74 107.72 20.98 108.96
  Q 20.41 109.89 20.98 110.48
  A 0.75 0.75 0.0 0 0 22.20 110.29
  L 23.09 108.43
  Q 23.38 107.83 24.02 108.01
  Q 27.05 108.88 28.13 105.85
  Q 28.33 105.29 28.03 104.78
  L 26.20 101.67
  Q 25.87 101.12 25.32 101.45
  L 18.62 105.48
  A 0.63 0.63 0.0 0 0 18.44 106.39
  L 18.82 106.89
  A 0.66 0.66 0.0 0 0 19.73 107.04
  L 21.64 105.73
  A 0.54 0.54 0.0 0 1 22.42 106.43
  Z
  M 34.97 114.95
  A 4.65 4.65 0.0 0 0 30.32 110.30
  A 4.65 4.65 0.0 0 0 25.67 114.95
  A 4.65 4.65 0.0 0 0 30.32 119.60
  A 4.65 4.65 0.0 0 0 34.97 114.95
  Z
  M 117.56 118.81
  Q 115.47 117.09 113.77 114.99
  Q 112.94 113.95 112.05 114.52
  A 0.84 0.84 0.0 0 0 111.91 115.83
  L 117.38 121.29
  Q 117.80 121.72 118.23 121.30
  L 120.77 118.79
  A 0.62 0.61 39.3 0 0 120.67 117.84
  L 120.18 117.52
  Q 119.61 117.15 119.20 117.70
  L 118.47 118.69
  Q 118.07 119.23 117.56 118.81
  Z
  M 110.86 125.80
  L 114.01 125.28
  A 0.56 0.56 0.0 0 0 114.22 124.25
  L 106.78 119.55
  A 0.40 0.40 0.0 0 0 106.18 119.98
  L 108.27 128.43
  A 0.57 0.57 0.0 0 0 109.20 128.71
  Q 110.13 127.88 110.19 126.56
  A 0.79 0.79 0.0 0 1 110.86 125.80
  Z
  M 42.17 127.84
  C 41.15 124.83 44.02 122.38 46.69 124.69
  A 0.75 0.74 47.8 0 0 47.60 124.74
  Q 47.99 124.48 48.02 124.01
  Q 48.05 123.54 47.55 123.10
  C 42.71 118.82 36.72 126.44 42.29 130.47
  Q 43.47 131.33 44.58 130.39
  A 0.62 0.62 0.0 0 0 44.48 129.37
  L 42.57 128.31
  A 0.85 0.80 6.4 0 1 42.17 127.84
  Z
  M 100.9033 123.7445
  A 0.87 0.87 0.0 0 0 99.7242 123.3930
  L 99.6715 123.4215
  A 0.87 0.87 0.0 0 0 99.3200 124.6006
  L 102.8967 131.2155
  A 0.87 0.87 0.0 0 0 104.0758 131.5670
  L 104.1285 131.5385
  A 0.87 0.87 0.0 0 0 104.4800 130.3594
  L 100.9033 123.7445
  Z
  M 97.96 132.21
  C 93.45 135.03 90.95 128.04 96.10 127.44
  Q 96.58 127.39 96.49 126.91
  L 96.38 126.29
  Q 96.24 125.58 95.52 125.69
  C 88.07 126.89 91.67 137.82 98.65 133.93
  Q 99.61 133.39 98.70 132.32
  A 0.57 0.57 0.0 0 0 97.96 132.21
  Z
  M 58.13 130.63
  A 4.64 4.64 0.0 0 0 53.49 125.99
  A 4.64 4.64 0.0 0 0 48.85 130.63
  A 4.64 4.64 0.0 0 0 53.49 135.27
  A 4.64 4.64 0.0 0 0 58.13 130.63
  Z
  M 67.22 134.13
  A 0.40 0.40 0.0 0 1 67.87 134.51
  L 67.22 138.27
  A 0.40 0.40 0.0 0 0 67.61 138.74
  L 68.71 138.75
  A 0.40 0.40 0.0 0 0 69.11 138.41
  L 70.32 130.18
  A 0.40 0.40 0.0 0 0 69.66 129.81
  L 66.07 132.85
  A 0.40 0.40 0.0 0 1 65.48 132.76
  L 62.86 128.81
  A 0.40 0.40 0.0 0 0 62.13 128.98
  L 60.97 137.27
  A 0.40 0.40 0.0 0 0 61.36 137.72
  L 62.48 137.76
  A 0.40 0.40 0.0 0 0 62.89 137.40
  L 63.28 133.68
  A 0.40 0.40 0.0 0 1 64.02 133.52
  L 65.09 135.30
  A 0.40 0.40 0.0 0 0 65.69 135.40
  L 67.22 134.13
  Z
  M 85.36 134.52
  L 87.46 137.24
  Q 87.73 137.59 88.15 137.47
  L 89.04 137.23
  A 0.52 0.52 0.0 0 0 89.26 136.36
  L 87.34 134.51
  Q 86.98 134.16 87.25 133.74
  C 88.30 132.08 88.92 130.55 87.02 129.25
  C 85.73 128.37 83.62 129.10 82.10 129.39
  A 0.49 0.49 0.0 0 0 81.71 129.96
  L 83.12 137.70
  A 0.61 0.60 -6.0 0 0 83.74 138.20
  L 84.43 138.18
  A 0.62 0.62 0.0 0 0 85.01 137.41
  L 84.40 134.99
  A 0.55 0.55 0.0 0 1 85.36 134.52
  Z
  M 75.70 132.99
  L 75.68 132.04
  Q 75.67 131.41 76.28 131.55
  Q 77.08 131.72 77.60 131.67
  A 0.94 0.94 0.0 0 0 77.52 129.80
  L 74.38 129.79
  A 0.59 0.59 0.0 0 0 73.79 130.40
  L 74.05 138.06
  Q 74.07 138.56 74.56 138.66
  Q 76.58 139.09 78.26 138.64
  A 0.84 0.84 0.0 0 0 78.02 136.98
  L 76.51 137.03
  Q 75.71 137.05 75.74 136.26
  L 75.76 135.77
  A 0.59 0.59 0.0 0 1 76.40 135.21
  Q 77.15 135.27 77.68 135.16
  A 0.88 0.87 -52.3 0 0 77.46 133.43
  L 76.24 133.50
  Q 75.71 133.53 75.70 132.99
  Z"
/>
<path fill="#010101" d="
  M 133.38 57.09
  C 115.39 -1.73 33.29 -1.14 15.46 57.26
  A 0.44 0.44 0.0 0 1 14.80 57.50
  Q 14.64 57.40 14.56 57.19
  Q 14.50 57.02 14.57 56.77
  C 23.30 26.96 52.65 8.59 82.95 12.60
  C 107.65 15.86 126.42 32.96 134.36 56.48
  Q 134.56 57.08 134.16 57.36
  A 0.51 0.51 0.0 0 1 133.38 57.09
  Z"
/>
<path fill="#010101" d="
  M 51.58 43.06
  C 49.06 50.90 49.14 69.95 62.99 66.89
  C 66.55 66.10 67.41 62.51 68.44 59.65
  A 0.41 0.41 0.0 0 1 69.24 59.78
  L 69.25 65.27
  Q 69.26 65.84 68.75 66.10
  C 59.07 70.99 46.33 68.09 43.28 56.49
  C 39.16 40.83 54.49 30.46 68.15 37.11
  Q 68.68 37.37 68.71 37.94
  L 69.03 42.74
  A 0.39 0.39 0.0 0 1 68.33 43.00
  C 66.19 40.15 65.52 36.28 60.97 36.26
  Q 53.78 36.24 51.58 43.06
  Z"
/>
<path fill="#010101" d="
  M 80.90 68.65
  L 84.25 81.43
  Q 84.47 82.30 84.76 81.45
  L 88.82 69.43
  C 89.56 67.18 90.82 64.90 90.56 62.60
  Q 90.13 58.71 86.87 56.11
  Q 86.37 55.70 87.02 55.70
  L 99.80 55.70
  A 0.39 0.39 0.0 0 1 99.94 56.45
  L 97.88 57.29
  A 0.99 0.98 -19.4 0 0 97.30 58.48
  L 100.45 69.23
  L 104.25 82.07
  A 0.28 0.28 0.0 0 0 104.79 82.07
  L 108.52 69.07
  Q 109.98 64.07 111.30 59.27
  Q 111.72 57.74 109.11 56.14
  A 0.24 0.24 0.0 0 1 109.24 55.69
  L 115.77 55.71
  A 0.39 0.39 0.0 0 1 115.93 56.45
  L 113.94 57.37
  A 1.11 1.10 85.8 0 0 113.35 58.06
  L 110.19 69.02
  L 104.04 90.41
  A 2.36 2.36 0.0 0 1 99.52 90.47
  L 91.98 66.76
  A 0.24 0.24 0.0 0 0 91.53 66.76
  L 83.79 90.51
  A 2.37 2.37 0.0 0 1 79.26 90.45
  L 72.85 69.00
  Q 71.38 63.89 70.12 59.44
  Q 69.44 57.01 67.17 56.35
  A 0.33 0.33 0.0 0 1 67.26 55.71
  L 80.91 55.68
  A 0.39 0.38 32.1 0 1 81.08 56.41
  L 78.75 57.51
  A 0.79 0.79 0.0 0 0 78.32 58.42
  L 80.90 68.65
  Z"
/>
<path fill="#010101" d="
  M 129.48 70.96
  L 128.89 68.97
  Q 127.99 66.02 129.74 66.49
  A 1.01 1.00 -83.5 0 1 130.49 67.44
  L 130.52 68.27
  Q 130.53 69.01 131.27 68.97
  L 131.72 68.95
  Q 132.29 68.92 132.25 68.34
  Q 132.20 67.51 132.28 66.92
  A 0.85 0.85 0.0 0 1 133.97 66.98
  L 134.02 67.80
  A 0.96 0.96 0.0 0 0 135.89 68.03
  Q 136.13 67.28 135.55 66.49
  A 0.54 0.54 0.0 0 1 135.86 65.65
  L 136.70 65.44
  Q 137.37 65.28 137.44 65.96
  L 137.81 69.43
  Q 137.88 70.06 137.25 70.13
  L 129.48 70.96
  Z"
/>
<path fill="#010101" d="
  M 18.51 72.46
  L 17.90 72.35
  Q 17.22 72.23 17.45 71.58
  C 19.13 66.78 11.64 66.23 12.45 71.26
  A 0.61 0.60 -11.3 0 1 11.99 71.94
  Q 11.19 72.13 10.78 71.69
  Q 10.50 71.39 10.51 70.74
  C 10.63 63.22 21.31 64.83 19.32 71.95
  Q 19.14 72.57 18.51 72.46
  Z"
/>
<path fill="#ffca67" d="
  M 110.19 69.02
  L 128.89 68.97
  L 129.48 70.96
  Q 128.23 76.25 127.76 81.56
  Q 127.58 83.55 126.58 85.74
  C 125.73 87.61 125.31 89.65 124.54 91.32
  C 109.07 124.81 67.25 133.84 39.30 110.93
  Q 22.97 97.54 20.33 76.47
  C 20.03 74.03 20.23 71.94 20.50 69.56
  A 0.79 0.78 -86.4 0 1 21.29 68.86
  Q 36.31 68.89 51.41 68.76
  C 53.72 68.74 55.85 69.71 58.05 70.38
  Q 43.08 72.58 42.74 87.22
  C 42.40 101.69 57.13 106.99 68.71 101.41
  A 0.83 0.81 -12.5 0 0 69.18 100.69
  L 69.29 95.01
  A 0.35 0.35 0.0 0 0 68.63 94.85
  C 67.23 97.66 66.79 101.51 63.25 102.26
  C 50.09 105.06 49.14 89.25 51.06 80.67
  C 52.40 74.71 55.25 71.00 61.73 71.63
  C 65.43 71.99 66.81 75.96 68.25 78.26
  A 0.42 0.42 0.0 0 0 69.02 78.01
  L 68.69 73.24
  A 0.90 0.89 -81.9 0 0 68.11 72.46
  L 62.89 70.45
  Q 66.75 68.03 72.85 69.00
  L 79.26 90.45
  A 2.37 2.37 0.0 0 0 83.79 90.51
  L 91.53 66.76
  A 0.24 0.24 0.0 0 1 91.98 66.76
  L 99.52 90.47
  A 2.36 2.36 0.0 0 0 104.04 90.41
  L 110.19 69.02
  Z"
/>
<path fill="#ffca67" d="
  M 80.90 68.65
  L 88.82 69.43
  L 84.76 81.45
  Q 84.47 82.30 84.25 81.43
  L 80.90 68.65
  Z"
/>
<path fill="#ffca67" d="
  M 108.52 69.07
  L 104.79 82.07
  A 0.28 0.28 0.0 0 1 104.25 82.07
  L 100.45 69.23
  Q 104.33 68.40 108.52 69.07
  Z"
/>
<path fill="#010101" d="
  M 58.05 70.38
  L 62.89 70.45
  L 68.11 72.46
  A 0.90 0.89 -81.9 0 1 68.69 73.24
  L 69.02 78.01
  A 0.42 0.42 0.0 0 1 68.25 78.26
  C 66.81 75.96 65.43 71.99 61.73 71.63
  C 55.25 71.00 52.40 74.71 51.06 80.67
  C 49.14 89.25 50.09 105.06 63.25 102.26
  C 66.79 101.51 67.23 97.66 68.63 94.85
  A 0.35 0.35 0.0 0 1 69.29 95.01
  L 69.18 100.69
  A 0.83 0.81 -12.5 0 1 68.71 101.41
  C 57.13 106.99 42.40 101.69 42.74 87.22
  Q 43.08 72.58 58.05 70.38
  Z"
/>
<path fill="#010101" d="
  M 129.35 81.42
  A 0.52 0.52 0.0 0 1 128.86 80.88
  L 128.96 78.77
  A 4.51 4.28 -87.2 0 1 133.45 74.47
  L 133.91 74.50
  A 4.51 4.28 -87.2 0 1 137.97 79.21
  L 137.87 81.32
  A 0.52 0.52 0.0 0 1 137.32 81.81
  L 129.35 81.42
  Z
  M 131.42 79.71
  L 135.53 79.85
  A 0.61 0.61 0.0 0 0 136.16 79.26
  L 136.17 79.05
  A 2.53 2.50 1.9 0 0 133.72 76.47
  L 133.45 76.46
  A 2.53 2.50 1.9 0 0 130.83 78.87
  L 130.83 79.08
  A 0.61 0.61 0.0 0 0 131.42 79.71
  Z"
/>
<path fill="#010101" d="
  M 13.52 77.84
  L 12.89 77.78
  A 0.59 0.58 2.2 0 0 12.25 78.37
  L 12.26 80.21
  A 0.87 0.87 0.0 0 1 10.52 80.26
  L 10.36 76.84
  Q 10.34 76.27 10.91 76.23
  L 18.45 75.75
  Q 19.01 75.71 19.14 76.26
  Q 19.49 77.73 19.49 79.18
  Q 19.48 79.93 19.12 80.24
  Q 18.71 80.59 18.07 80.33
  Q 17.67 80.18 17.68 79.76
  L 17.69 78.25
  A 0.62 0.61 84.6 0 0 16.96 77.64
  L 16.15 77.81
  A 0.53 0.53 0.0 0 0 15.75 78.51
  Q 16.29 80.06 14.85 80.35
  A 0.67 0.67 0.0 0 1 14.05 79.69
  L 14.03 78.39
  Q 14.03 77.88 13.52 77.84
  Z"
/>
<path fill="#ffffff" d="
  M 131.42 79.71
  A 0.61 0.61 0.0 0 1 130.83 79.08
  L 130.83 78.87
  A 2.53 2.50 1.9 0 1 133.45 76.46
  L 133.72 76.47
  A 2.53 2.50 1.9 0 1 136.17 79.05
  L 136.16 79.26
  A 0.61 0.61 0.0 0 1 135.53 79.85
  L 131.42 79.71
  Z"
/>
<path fill="#010101" d="
  M 15.50 86.30
  L 12.24 87.08
  Q 11.75 87.19 11.48 86.77
  Q 10.62 85.39 11.73 85.18
  Q 15.72 84.43 19.26 83.65
  A 0.53 0.53 0.0 0 1 19.79 84.49
  L 16.40 88.91
  Q 15.84 89.64 16.73 89.40
  L 20.35 88.41
  A 0.66 0.66 0.0 0 1 21.18 88.98
  L 21.25 89.63
  A 0.64 0.64 0.0 0 1 20.75 90.33
  L 12.76 92.05
  A 0.38 0.37 -77.9 0 1 12.38 91.46
  L 15.84 86.81
  Q 16.37 86.09 15.50 86.30
  Z"
/>
<path fill="#010101" d="
  M 134.91 88.16
  L 135.19 86.74
  A 0.94 0.92 82.4 0 1 136.99 87.11
  Q 136.68 88.71 136.29 90.20
  Q 136.14 90.78 135.56 90.65
  L 127.90 89.03
  Q 127.36 88.92 127.52 88.39
  L 127.76 87.62
  Q 127.91 87.13 128.41 87.24
  L 134.32 88.55
  Q 134.81 88.66 134.91 88.16
  Z"
/>
<rect fill="#010101" x="-4.52" y="-0.91" transform="translate(130.13,94.79) rotate(19.7)" width="9.04" height="1.82" rx="0.62"/>
<path fill="#010101" d="
  M 21.50 97.34
  L 15.85 99.70
  Q 15.20 99.97 15.02 99.29
  L 14.87 98.75
  Q 14.70 98.12 15.31 97.89
  L 20.66 95.85
  Q 21.19 95.64 21.04 95.09
  L 20.67 93.75
  A 0.90 0.90 0.0 0 1 22.37 93.18
  L 24.38 98.20
  A 0.64 0.64 0.0 0 1 23.86 99.07
  Q 22.39 99.25 22.29 97.82
  Q 22.23 97.03 21.50 97.34
  Z"
/>
<path fill="#010101" d="
  M 126.65 101.59
  L 124.60 99.16
  A 1.31 1.13 65.1 0 1 125.20 97.08
  Q 125.30 97.07 125.58 97.41
  Q 128.19 100.73 130.92 103.87
  A 0.44 0.44 0.0 0 1 130.53 104.59
  L 127.74 104.19
  Q 126.53 104.01 127.37 104.90
  L 129.11 106.75
  A 0.55 0.54 -17.9 0 1 128.64 107.66
  L 120.44 106.65
  Q 119.80 106.57 119.92 105.93
  L 120.05 105.24
  Q 120.17 104.65 120.77 104.73
  L 124.52 105.28
  A 0.41 0.41 0.0 0 0 124.88 104.59
  L 122.92 102.52
  A 0.54 0.54 0.0 0 1 123.42 101.61
  L 126.27 102.21
  Q 127.37 102.44 126.65 101.59
  Z"
/>
<path fill="#010101" d="
  M 21.64 105.73
  L 19.73 107.04
  A 0.66 0.66 0.0 0 1 18.82 106.89
  L 18.44 106.39
  A 0.63 0.63 0.0 0 1 18.62 105.48
  L 25.32 101.45
  Q 25.87 101.12 26.20 101.67
  L 28.03 104.78
  Q 28.33 105.29 28.13 105.85
  Q 27.05 108.88 24.02 108.01
  Q 23.38 107.83 23.09 108.43
  L 22.20 110.29
  A 0.75 0.75 0.0 0 1 20.98 110.48
  Q 20.41 109.89 20.98 108.96
  Q 21.74 107.72 22.42 106.43
  A 0.54 0.54 0.0 0 0 21.64 105.73
  Z
  M 25.6370 106.2533
  A 1.31 1.12 59.9 0 0 25.9490 104.5583
  A 1.31 1.12 59.9 0 0 24.3230 103.9867
  A 1.31 1.12 59.9 0 0 24.0110 105.6817
  A 1.31 1.12 59.9 0 0 25.6370 106.2533
  Z"
/>
<ellipse fill="#ffffff" cx="0.00" cy="0.00" transform="translate(24.98,105.12) rotate(59.9)" rx="1.31" ry="1.12"/>
<path fill="#010101" d="
  M 34.97 114.95
  A 4.65 4.65 0.0 0 1 30.32 119.60
  A 4.65 4.65 0.0 0 1 25.67 114.95
  A 4.65 4.65 0.0 0 1 30.32 110.30
  A 4.65 4.65 0.0 0 1 34.97 114.95
  Z
  M 33.03 114.95
  A 2.72 2.72 0.0 0 0 30.31 112.23
  A 2.72 2.72 0.0 0 0 27.59 114.95
  A 2.72 2.72 0.0 0 0 30.31 117.67
  A 2.72 2.72 0.0 0 0 33.03 114.95
  Z"
/>
<circle fill="#ffffff" cx="30.31" cy="114.95" r="2.72"/>
<path fill="#010101" d="
  M 118.47 118.69
  L 119.20 117.70
  Q 119.61 117.15 120.18 117.52
  L 120.67 117.84
  A 0.62 0.61 39.3 0 1 120.77 118.79
  L 118.23 121.30
  Q 117.80 121.72 117.38 121.29
  L 111.91 115.83
  A 0.84 0.84 0.0 0 1 112.05 114.52
  Q 112.94 113.95 113.77 114.99
  Q 115.47 117.09 117.56 118.81
  Q 118.07 119.23 118.47 118.69
  Z"
/>
<path fill="#010101" d="
  M 110.19 126.56
  Q 110.13 127.88 109.20 128.71
  A 0.57 0.57 0.0 0 1 108.27 128.43
  L 106.18 119.98
  A 0.40 0.40 0.0 0 1 106.78 119.55
  L 114.22 124.25
  A 0.56 0.56 0.0 0 1 114.01 125.28
  L 110.86 125.80
  A 0.79 0.79 0.0 0 0 110.19 126.56
  Z
  M 109.28 124.77
  A 0.42 0.41 -18.9 0 0 109.78 125.01
  Q 110.31 124.87 110.35 124.35
  Q 110.39 124.00 110.11 123.72
  Q 109.72 123.33 109.14 123.16
  Q 108.53 122.99 108.78 123.57
  L 109.28 124.77
  Z"
/>
<path fill="#010101" d="
  M 46.69 124.69
  C 44.02 122.38 41.15 124.83 42.17 127.84
  A 0.85 0.80 6.4 0 0 42.57 128.31
  L 44.48 129.37
  A 0.62 0.62 0.0 0 1 44.58 130.39
  Q 43.47 131.33 42.29 130.47
  C 36.72 126.44 42.71 118.82 47.55 123.10
  Q 48.05 123.54 48.02 124.01
  Q 47.99 124.48 47.60 124.74
  A 0.75 0.74 47.8 0 1 46.69 124.69
  Z"
/>
<path fill="#ffffff" d="
  M 109.28 124.77
  L 108.78 123.57
  Q 108.53 122.99 109.14 123.16
  Q 109.72 123.33 110.11 123.72
  Q 110.39 124.00 110.35 124.35
  Q 110.31 124.87 109.78 125.01
  A 0.42 0.41 -18.9 0 1 109.28 124.77
  Z"
/>
<rect fill="#010101" x="-0.90" y="-4.63" transform="translate(101.90,127.48) rotate(-28.4)" width="1.80" height="9.26" rx="0.87"/>
<path fill="#010101" d="
  M 96.10 127.44
  C 90.95 128.04 93.45 135.03 97.96 132.21
  A 0.57 0.57 0.0 0 1 98.70 132.32
  Q 99.61 133.39 98.65 133.93
  C 91.67 137.82 88.07 126.89 95.52 125.69
  Q 96.24 125.58 96.38 126.29
  L 96.49 126.91
  Q 96.58 127.39 96.10 127.44
  Z"
/>
<path fill="#010101" d="
  M 58.13 130.63
  A 4.64 4.64 0.0 0 1 53.49 135.27
  A 4.64 4.64 0.0 0 1 48.85 130.63
  A 4.64 4.64 0.0 0 1 53.49 125.99
  A 4.64 4.64 0.0 0 1 58.13 130.63
  Z
  M 56.25 130.62
  A 2.74 2.74 0.0 0 0 53.51 127.88
  A 2.74 2.74 0.0 0 0 50.77 130.62
  A 2.74 2.74 0.0 0 0 53.51 133.36
  A 2.74 2.74 0.0 0 0 56.25 130.62
  Z"
/>
<circle fill="#ffffff" cx="53.51" cy="130.62" r="2.74"/>
<path fill="#010101" d="
  M 67.22 134.13
  L 65.69 135.40
  A 0.40 0.40 0.0 0 1 65.09 135.30
  L 64.02 133.52
  A 0.40 0.40 0.0 0 0 63.28 133.68
  L 62.89 137.40
  A 0.40 0.40 0.0 0 1 62.48 137.76
  L 61.36 137.72
  A 0.40 0.40 0.0 0 1 60.97 137.27
  L 62.13 128.98
  A 0.40 0.40 0.0 0 1 62.86 128.81
  L 65.48 132.76
  A 0.40 0.40 0.0 0 0 66.07 132.85
  L 69.66 129.81
  A 0.40 0.40 0.0 0 1 70.32 130.18
  L 69.11 138.41
  A 0.40 0.40 0.0 0 1 68.71 138.75
  L 67.61 138.74
  A 0.40 0.40 0.0 0 1 67.22 138.27
  L 67.87 134.51
  A 0.40 0.40 0.0 0 0 67.22 134.13
  Z"
/>
<path fill="#010101" d="
  M 84.40 134.99
  L 85.01 137.41
  A 0.62 0.62 0.0 0 1 84.43 138.18
  L 83.74 138.20
  A 0.61 0.60 -6.0 0 1 83.12 137.70
  L 81.71 129.96
  A 0.49 0.49 0.0 0 1 82.10 129.39
  C 83.62 129.10 85.73 128.37 87.02 129.25
  C 88.92 130.55 88.30 132.08 87.25 133.74
  Q 86.98 134.16 87.34 134.51
  L 89.26 136.36
  A 0.52 0.52 0.0 0 1 89.04 137.23
  L 88.15 137.47
  Q 87.73 137.59 87.46 137.24
  L 85.36 134.52
  A 0.55 0.55 0.0 0 0 84.40 134.99
  Z
  M 86.3742 131.4294
  A 1.33 1.10 -11.3 0 0 84.8545 130.6113
  A 1.33 1.10 -11.3 0 0 83.7658 131.9506
  A 1.33 1.10 -11.3 0 0 85.2855 132.7687
  A 1.33 1.10 -11.3 0 0 86.3742 131.4294
  Z"
/>
<path fill="#010101" d="
  M 76.24 133.50
  L 77.46 133.43
  A 0.88 0.87 -52.3 0 1 77.68 135.16
  Q 77.15 135.27 76.40 135.21
  A 0.59 0.59 0.0 0 0 75.76 135.77
  L 75.74 136.26
  Q 75.71 137.05 76.51 137.03
  L 78.02 136.98
  A 0.84 0.84 0.0 0 1 78.26 138.64
  Q 76.58 139.09 74.56 138.66
  Q 74.07 138.56 74.05 138.06
  L 73.79 130.40
  A 0.59 0.59 0.0 0 1 74.38 129.79
  L 77.52 129.80
  A 0.94 0.94 0.0 0 1 77.60 131.67
  Q 77.08 131.72 76.28 131.55
  Q 75.67 131.41 75.68 132.04
  L 75.70 132.99
  Q 75.71 133.53 76.24 133.50
  Z"
/>
<ellipse fill="#ffffff" cx="0.00" cy="0.00" transform="translate(85.07,131.69) rotate(-11.3)" rx="1.33" ry="1.10"/>
</svg>
